<svg width="291" height="226" viewBox="0 0 291 226" fill="none" xmlns="http://www.w3.org/2000/svg">
<rect width="291" height="226" fill="#F0F0F0"/>
<path d="M30 43.179C29.0369 43.179 28.2166 42.9169 27.5391 42.3928C26.8615 41.8643 26.3438 41.0994 25.9858 40.098C25.6278 39.0923 25.4489 37.8778 25.4489 36.4545C25.4489 35.0398 25.6278 33.8317 25.9858 32.8303C26.348 31.8246 26.8679 31.0575 27.5455 30.5291C28.2273 29.9964 29.0455 29.7301 30 29.7301C30.9545 29.7301 31.7706 29.9964 32.4482 30.5291C33.13 31.0575 33.6499 31.8246 34.0078 32.8303C34.37 33.8317 34.5511 35.0398 34.5511 36.4545C34.5511 37.8778 34.3722 39.0923 34.0142 40.098C33.6562 41.0994 33.1385 41.8643 32.4609 42.3928C31.7834 42.9169 30.9631 43.179 30 43.179ZM30 41.7727C30.9545 41.7727 31.696 41.3125 32.2244 40.392C32.7528 39.4716 33.017 38.1591 33.017 36.4545C33.017 35.321 32.8956 34.3558 32.6527 33.5589C32.4141 32.7621 32.0689 32.1548 31.6172 31.7372C31.1697 31.3196 30.6307 31.1108 30 31.1108C29.054 31.1108 28.3146 31.5774 27.782 32.5107C27.2493 33.4396 26.983 34.7543 26.983 36.4545C26.983 37.5881 27.1023 38.5511 27.3409 39.3438C27.5795 40.1364 27.9226 40.7393 28.37 41.1527C28.8217 41.5661 29.3651 41.7727 30 41.7727Z" fill="#222222"/>
<rect x="9.5" y="17.5" width="41" height="37" stroke="#936DE4" stroke-width="3"/>
<path d="M72.7738 29.9091V43H71.1886V31.571H71.1119L67.9158 33.6932V32.0824L71.1886 29.9091H72.7738Z" fill="#222222"/>
<rect x="50.5" y="17.5" width="41" height="37" stroke="#936DE4" stroke-width="3"/>
<path d="M69.9059 113V111.849L74.2269 107.119C74.734 106.565 75.1516 106.084 75.4798 105.675C75.8079 105.261 76.0508 104.874 76.2085 104.511C76.3704 104.145 76.4513 103.761 76.4513 103.361C76.4513 102.901 76.3406 102.502 76.119 102.165C75.9016 101.829 75.6033 101.569 75.2241 101.386C74.8448 101.202 74.4187 101.111 73.9457 101.111C73.4428 101.111 73.0039 101.215 72.6289 101.424C72.2582 101.629 71.9705 101.916 71.766 102.287C71.5657 102.658 71.4656 103.092 71.4656 103.591H69.957C69.957 102.824 70.1339 102.151 70.4876 101.571C70.8413 100.991 71.3228 100.54 71.9322 100.216C72.5458 99.892 73.234 99.7301 73.9968 99.7301C74.7638 99.7301 75.4435 99.892 76.0359 100.216C76.6282 100.54 77.0927 100.977 77.4293 101.526C77.766 102.076 77.9343 102.688 77.9343 103.361C77.9343 103.842 77.8469 104.313 77.6722 104.773C77.5018 105.229 77.2035 105.739 76.7773 106.301C76.3555 106.859 75.7695 107.541 75.0195 108.347L72.0792 111.491V111.594H78.1644V113H69.9059Z" fill="#222222"/>
<rect x="53.5" y="87.5" width="41" height="37" stroke="#2D4EC6" stroke-width="3"/>
<path d="M113.906 113V111.849L118.227 107.119C118.734 106.565 119.152 106.084 119.48 105.675C119.808 105.261 120.051 104.874 120.208 104.511C120.37 104.145 120.451 103.761 120.451 103.361C120.451 102.901 120.341 102.502 120.119 102.165C119.902 101.829 119.603 101.569 119.224 101.386C118.845 101.202 118.419 101.111 117.946 101.111C117.443 101.111 117.004 101.215 116.629 101.424C116.258 101.629 115.971 101.916 115.766 102.287C115.566 102.658 115.466 103.092 115.466 103.591H113.957C113.957 102.824 114.134 102.151 114.488 101.571C114.841 100.991 115.323 100.54 115.932 100.216C116.546 99.892 117.234 99.7301 117.997 99.7301C118.764 99.7301 119.444 99.892 120.036 100.216C120.628 100.54 121.093 100.977 121.429 101.526C121.766 102.076 121.934 102.688 121.934 103.361C121.934 103.842 121.847 104.313 121.672 104.773C121.502 105.229 121.203 105.739 120.777 106.301C120.355 106.859 119.77 107.541 119.02 108.347L116.079 111.491V111.594H122.164V113H113.906Z" fill="#222222"/>
<rect x="97.5" y="87.5" width="41" height="37" stroke="#2D4EC6" stroke-width="3"/>
<path d="M163.774 99.9091V113H162.189V101.571H162.112L158.916 103.693V102.082L162.189 99.9091H163.774Z" fill="#222222"/>
<rect x="141.5" y="87.5" width="41" height="37" stroke="#2D4EC6" stroke-width="3"/>
<path d="M206 113.179C205.037 113.179 204.217 112.917 203.539 112.393C202.862 111.864 202.344 111.099 201.986 110.098C201.628 109.092 201.449 107.878 201.449 106.455C201.449 105.04 201.628 103.832 201.986 102.83C202.348 101.825 202.868 101.058 203.545 100.529C204.227 99.9964 205.045 99.7301 206 99.7301C206.955 99.7301 207.771 99.9964 208.448 100.529C209.13 101.058 209.65 101.825 210.008 102.83C210.37 103.832 210.551 105.04 210.551 106.455C210.551 107.878 210.372 109.092 210.014 110.098C209.656 111.099 209.138 111.864 208.461 112.393C207.783 112.917 206.963 113.179 206 113.179ZM206 111.773C206.955 111.773 207.696 111.312 208.224 110.392C208.753 109.472 209.017 108.159 209.017 106.455C209.017 105.321 208.896 104.356 208.653 103.559C208.414 102.762 208.069 102.155 207.617 101.737C207.17 101.32 206.631 101.111 206 101.111C205.054 101.111 204.315 101.577 203.782 102.511C203.249 103.44 202.983 104.754 202.983 106.455C202.983 107.588 203.102 108.551 203.341 109.344C203.58 110.136 203.923 110.739 204.37 111.153C204.822 111.566 205.365 111.773 206 111.773Z" fill="#222222"/>
<rect x="185.5" y="87.5" width="41" height="37" stroke="#2D4EC6" stroke-width="3"/>
<path d="M30.0001 49L25.6699 56.5L34.3302 56.5L30.0001 49ZM30.75 153L30.7501 55.75L29.2501 55.75L29.25 153L30.75 153Z" fill="#FF4949"/>
<path d="M71.0001 49L66.6699 56.5L75.3302 56.5L71.0001 49ZM71.75 81L71.75 55.75L70.25 55.75L70.25 81L71.75 81Z" fill="#FF4949"/>
<path d="M81 36L88.5 40.3301V31.6699L81 36ZM115 35.25H87.75V36.75H115V35.25Z" fill="#E4D33E"/>
<path d="M122.074 42V34.3636H123.247V42H122.074ZM122.67 33.0909C122.442 33.0909 122.245 33.013 122.079 32.8572C121.916 32.7015 121.835 32.5142 121.835 32.2955C121.835 32.0767 121.916 31.8894 122.079 31.7337C122.245 31.5779 122.442 31.5 122.67 31.5C122.899 31.5 123.095 31.5779 123.257 31.7337C123.423 31.8894 123.506 32.0767 123.506 32.2955C123.506 32.5142 123.423 32.7015 123.257 32.8572C123.095 33.013 122.899 33.0909 122.67 33.0909ZM126.569 37.4062V42H125.396V34.3636H126.53V35.5568H126.629C126.808 35.169 127.08 34.8575 127.444 34.6222C127.809 34.3835 128.28 34.2642 128.856 34.2642C129.373 34.2642 129.826 34.3703 130.214 34.5824C130.601 34.7912 130.903 35.1094 131.118 35.5369C131.334 35.9612 131.442 36.4981 131.442 37.1477V42H130.268V37.2273C130.268 36.6274 130.113 36.16 129.801 35.8253C129.489 35.4872 129.062 35.3182 128.518 35.3182C128.144 35.3182 127.809 35.3994 127.514 35.5618C127.222 35.7242 126.992 35.9612 126.823 36.2727C126.654 36.5843 126.569 36.9621 126.569 37.4062ZM136.469 42.1591C135.833 42.1591 135.271 41.9983 134.784 41.6768C134.297 41.352 133.915 40.8946 133.64 40.3047C133.365 39.7114 133.228 39.0104 133.228 38.2017C133.228 37.3996 133.365 36.7036 133.64 36.1136C133.915 35.5237 134.298 35.0679 134.789 34.7464C135.279 34.425 135.846 34.2642 136.489 34.2642C136.986 34.2642 137.379 34.3471 137.667 34.5128C137.959 34.6752 138.181 34.8608 138.333 35.0696C138.489 35.2751 138.61 35.4441 138.696 35.5767H138.796V31.8182H139.969V42H138.836V40.8267H138.696C138.61 40.9659 138.488 41.1416 138.328 41.3537C138.169 41.5625 137.942 41.7498 137.647 41.9155C137.352 42.0779 136.96 42.1591 136.469 42.1591ZM136.628 41.1051C137.099 41.1051 137.497 40.9825 137.821 40.7372C138.146 40.4886 138.393 40.1456 138.562 39.7081C138.731 39.2673 138.816 38.7585 138.816 38.1818C138.816 37.6117 138.733 37.1129 138.567 36.6854C138.401 36.2545 138.156 35.9197 137.831 35.6811C137.507 35.4392 137.105 35.3182 136.628 35.3182C136.131 35.3182 135.717 35.4458 135.385 35.701C135.057 35.9529 134.81 36.2959 134.645 36.7301C134.482 37.161 134.401 37.6449 134.401 38.1818C134.401 38.7254 134.484 39.2192 134.65 39.6634C134.819 40.1042 135.067 40.4555 135.395 40.7173C135.727 40.9759 136.138 41.1051 136.628 41.1051ZM145.483 42.1591C144.747 42.1591 144.112 41.9967 143.578 41.6719C143.048 41.3438 142.639 40.8864 142.35 40.2997C142.065 39.7098 141.923 39.0237 141.923 38.2415C141.923 37.4593 142.065 36.7699 142.35 36.1733C142.639 35.5734 143.04 35.1061 143.554 34.7713C144.071 34.4332 144.674 34.2642 145.363 34.2642C145.761 34.2642 146.154 34.3305 146.542 34.4631C146.929 34.5956 147.282 34.8111 147.6 35.1094C147.919 35.4044 148.172 35.7955 148.361 36.2827C148.55 36.7699 148.645 37.3698 148.645 38.0824V38.5795H142.758V37.5653H147.451C147.451 37.1345 147.365 36.75 147.193 36.4119C147.024 36.0739 146.782 35.8071 146.467 35.6115C146.155 35.416 145.788 35.3182 145.363 35.3182C144.896 35.3182 144.492 35.4342 144.15 35.6662C143.812 35.8949 143.552 36.1932 143.37 36.5611C143.187 36.929 143.096 37.3234 143.096 37.7443V38.4205C143.096 38.9972 143.196 39.486 143.395 39.8871C143.597 40.2848 143.877 40.5881 144.235 40.7969C144.593 41.0024 145.009 41.1051 145.483 41.1051C145.791 41.1051 146.069 41.062 146.318 40.9759C146.57 40.8864 146.787 40.7538 146.969 40.5781C147.151 40.3991 147.292 40.1771 147.392 39.9119L148.525 40.2301C148.406 40.6146 148.205 40.9527 147.924 41.2443C147.642 41.5327 147.294 41.758 146.88 41.9205C146.465 42.0795 146 42.1591 145.483 42.1591ZM151.099 34.3636L152.929 37.4858L154.758 34.3636H156.111L153.645 38.1818L156.111 42H154.758L152.929 39.0369L151.099 42H149.747L152.173 38.1818L149.747 34.3636H151.099Z" fill="black"/>
<path d="M216 139L223.5 143.33V134.67L216 139ZM246 138.25H222.75V139.75H246V138.25Z" fill="#E4D33E"/>
<path d="M248.074 144V136.364H249.247V144H248.074ZM248.67 135.091C248.442 135.091 248.245 135.013 248.079 134.857C247.916 134.701 247.835 134.514 247.835 134.295C247.835 134.077 247.916 133.889 248.079 133.734C248.245 133.578 248.442 133.5 248.67 133.5C248.899 133.5 249.095 133.578 249.257 133.734C249.423 133.889 249.506 134.077 249.506 134.295C249.506 134.514 249.423 134.701 249.257 134.857C249.095 135.013 248.899 135.091 248.67 135.091ZM252.569 139.406V144H251.396V136.364H252.53V137.557H252.629C252.808 137.169 253.08 136.857 253.444 136.622C253.809 136.384 254.28 136.264 254.856 136.264C255.373 136.264 255.826 136.37 256.214 136.582C256.601 136.791 256.903 137.109 257.118 137.537C257.334 137.961 257.442 138.498 257.442 139.148V144H256.268V139.227C256.268 138.627 256.113 138.16 255.801 137.825C255.489 137.487 255.062 137.318 254.518 137.318C254.144 137.318 253.809 137.399 253.514 137.562C253.222 137.724 252.992 137.961 252.823 138.273C252.654 138.584 252.569 138.962 252.569 139.406ZM262.469 144.159C261.833 144.159 261.271 143.998 260.784 143.677C260.297 143.352 259.915 142.895 259.64 142.305C259.365 141.711 259.228 141.01 259.228 140.202C259.228 139.4 259.365 138.704 259.64 138.114C259.915 137.524 260.298 137.068 260.789 136.746C261.279 136.425 261.846 136.264 262.489 136.264C262.986 136.264 263.379 136.347 263.667 136.513C263.959 136.675 264.181 136.861 264.333 137.07C264.489 137.275 264.61 137.444 264.696 137.577H264.796V133.818H265.969V144H264.836V142.827H264.696C264.61 142.966 264.488 143.142 264.328 143.354C264.169 143.562 263.942 143.75 263.647 143.915C263.352 144.078 262.96 144.159 262.469 144.159ZM262.628 143.105C263.099 143.105 263.497 142.982 263.821 142.737C264.146 142.489 264.393 142.146 264.562 141.708C264.731 141.267 264.816 140.759 264.816 140.182C264.816 139.612 264.733 139.113 264.567 138.685C264.401 138.254 264.156 137.92 263.831 137.681C263.507 137.439 263.105 137.318 262.628 137.318C262.131 137.318 261.717 137.446 261.385 137.701C261.057 137.953 260.81 138.296 260.645 138.73C260.482 139.161 260.401 139.645 260.401 140.182C260.401 140.725 260.484 141.219 260.65 141.663C260.819 142.104 261.067 142.455 261.395 142.717C261.727 142.976 262.138 143.105 262.628 143.105ZM271.483 144.159C270.747 144.159 270.112 143.997 269.578 143.672C269.048 143.344 268.639 142.886 268.35 142.3C268.065 141.71 267.923 141.024 267.923 140.241C267.923 139.459 268.065 138.77 268.35 138.173C268.639 137.573 269.04 137.106 269.554 136.771C270.071 136.433 270.674 136.264 271.363 136.264C271.761 136.264 272.154 136.33 272.542 136.463C272.929 136.596 273.282 136.811 273.6 137.109C273.919 137.404 274.172 137.795 274.361 138.283C274.55 138.77 274.645 139.37 274.645 140.082V140.58H268.758V139.565H273.451C273.451 139.134 273.365 138.75 273.193 138.412C273.024 138.074 272.782 137.807 272.467 137.612C272.155 137.416 271.788 137.318 271.363 137.318C270.896 137.318 270.492 137.434 270.15 137.666C269.812 137.895 269.552 138.193 269.37 138.561C269.187 138.929 269.096 139.323 269.096 139.744V140.42C269.096 140.997 269.196 141.486 269.395 141.887C269.597 142.285 269.877 142.588 270.235 142.797C270.593 143.002 271.009 143.105 271.483 143.105C271.791 143.105 272.069 143.062 272.318 142.976C272.57 142.886 272.787 142.754 272.969 142.578C273.151 142.399 273.292 142.177 273.392 141.912L274.525 142.23C274.406 142.615 274.205 142.953 273.924 143.244C273.642 143.533 273.294 143.758 272.88 143.92C272.465 144.08 272 144.159 271.483 144.159ZM277.099 136.364L278.929 139.486L280.758 136.364H282.111L279.645 140.182L282.111 144H280.758L278.929 141.037L277.099 144H275.747L278.173 140.182L275.747 136.364H277.099Z" fill="black"/>
<path d="M74.5 145.179C73.5369 145.179 72.7166 144.917 72.0391 144.393C71.3615 143.864 70.8438 143.099 70.4858 142.098C70.1278 141.092 69.9489 139.878 69.9489 138.455C69.9489 137.04 70.1278 135.832 70.4858 134.83C70.848 133.825 71.3679 133.058 72.0455 132.529C72.7273 131.996 73.5455 131.73 74.5 131.73C75.4545 131.73 76.2706 131.996 76.9482 132.529C77.63 133.058 78.1499 133.825 78.5078 134.83C78.87 135.832 79.0511 137.04 79.0511 138.455C79.0511 139.878 78.8722 141.092 78.5142 142.098C78.1562 143.099 77.6385 143.864 76.9609 144.393C76.2834 144.917 75.4631 145.179 74.5 145.179ZM74.5 143.773C75.4545 143.773 76.196 143.312 76.7244 142.392C77.2528 141.472 77.517 140.159 77.517 138.455C77.517 137.321 77.3956 136.356 77.1527 135.559C76.9141 134.762 76.5689 134.155 76.1172 133.737C75.6697 133.32 75.1307 133.111 74.5 133.111C73.554 133.111 72.8146 133.577 72.282 134.511C71.7493 135.44 71.483 136.754 71.483 138.455C71.483 139.588 71.6023 140.551 71.8409 141.344C72.0795 142.136 72.4226 142.739 72.87 143.153C73.3217 143.566 73.8651 143.773 74.5 143.773Z" fill="black"/>
<path d="M120.274 131.909V145H118.689V133.571H118.612L115.416 135.693V134.082L118.689 131.909H120.274Z" fill="black"/>
<path d="M158.406 145V143.849L162.727 139.119C163.234 138.565 163.652 138.084 163.98 137.675C164.308 137.261 164.551 136.874 164.708 136.511C164.87 136.145 164.951 135.761 164.951 135.361C164.951 134.901 164.841 134.502 164.619 134.165C164.402 133.829 164.103 133.569 163.724 133.386C163.345 133.202 162.919 133.111 162.446 133.111C161.943 133.111 161.504 133.215 161.129 133.424C160.758 133.629 160.471 133.916 160.266 134.287C160.066 134.658 159.966 135.092 159.966 135.591H158.457C158.457 134.824 158.634 134.151 158.988 133.571C159.341 132.991 159.823 132.54 160.432 132.216C161.046 131.892 161.734 131.73 162.497 131.73C163.264 131.73 163.944 131.892 164.536 132.216C165.128 132.54 165.593 132.977 165.929 133.526C166.266 134.076 166.434 134.688 166.434 135.361C166.434 135.842 166.347 136.313 166.172 136.773C166.002 137.229 165.703 137.739 165.277 138.301C164.855 138.859 164.27 139.541 163.52 140.347L160.579 143.491V143.594H166.664V145H158.406Z" fill="black"/>
<path d="M206.548 145.179C205.704 145.179 204.952 145.034 204.292 144.744C203.635 144.455 203.113 144.052 202.725 143.536C202.342 143.016 202.133 142.413 202.099 141.727H203.71C203.744 142.149 203.889 142.513 204.145 142.82C204.4 143.123 204.735 143.357 205.148 143.523C205.561 143.69 206.02 143.773 206.522 143.773C207.085 143.773 207.583 143.675 208.018 143.479C208.453 143.283 208.794 143.01 209.041 142.661C209.288 142.311 209.412 141.906 209.412 141.446C209.412 140.964 209.292 140.54 209.054 140.174C208.815 139.803 208.466 139.513 208.005 139.305C207.545 139.096 206.983 138.991 206.318 138.991H205.27V137.585H206.318C206.838 137.585 207.294 137.491 207.686 137.304C208.082 137.116 208.391 136.852 208.613 136.511C208.838 136.17 208.951 135.77 208.951 135.31C208.951 134.866 208.853 134.481 208.657 134.153C208.461 133.825 208.184 133.569 207.826 133.386C207.473 133.202 207.055 133.111 206.574 133.111C206.122 133.111 205.696 133.194 205.295 133.36C204.899 133.522 204.575 133.759 204.324 134.07C204.072 134.376 203.936 134.747 203.914 135.182H202.38C202.406 134.496 202.613 133.895 203 133.379C203.388 132.859 203.895 132.455 204.522 132.165C205.152 131.875 205.845 131.73 206.599 131.73C207.409 131.73 208.103 131.894 208.683 132.222C209.262 132.546 209.708 132.974 210.019 133.507C210.33 134.04 210.485 134.615 210.485 135.233C210.485 135.97 210.292 136.599 209.904 137.119C209.52 137.638 208.998 137.999 208.338 138.199V138.301C209.164 138.437 209.81 138.789 210.275 139.356C210.739 139.918 210.971 140.615 210.971 141.446C210.971 142.158 210.777 142.797 210.39 143.364C210.006 143.926 209.482 144.369 208.817 144.693C208.152 145.017 207.396 145.179 206.548 145.179Z" fill="black"/>
<path d="M32.3246 172.909V186H30.7393V174.571H30.6626L27.4666 176.693V175.082L30.7393 172.909H32.3246ZM36.0895 186V184.849L40.4105 180.119C40.9176 179.565 41.3352 179.084 41.6634 178.675C41.9915 178.261 42.2344 177.874 42.392 177.511C42.554 177.145 42.6349 176.761 42.6349 176.361C42.6349 175.901 42.5241 175.502 42.3026 175.165C42.0852 174.829 41.7869 174.569 41.4077 174.386C41.0284 174.202 40.6023 174.111 40.1293 174.111C39.6264 174.111 39.1875 174.215 38.8125 174.424C38.4418 174.629 38.1541 174.916 37.9496 175.287C37.7493 175.658 37.6491 176.092 37.6491 176.591H36.1406C36.1406 175.824 36.3175 175.151 36.6712 174.571C37.0249 173.991 37.5064 173.54 38.1158 173.216C38.7294 172.892 39.4176 172.73 40.1804 172.73C40.9474 172.73 41.6271 172.892 42.2195 173.216C42.8118 173.54 43.2763 173.977 43.6129 174.526C43.9496 175.076 44.1179 175.688 44.1179 176.361C44.1179 176.842 44.0305 177.313 43.8558 177.773C43.6854 178.229 43.3871 178.739 42.9609 179.301C42.5391 179.859 41.9531 180.541 41.2031 181.347L38.2628 184.491V184.594H44.348V186H36.0895Z" fill="#222222"/>
<rect x="15.5" y="160.5" width="41" height="37" stroke="#2D4EC6" stroke-width="3"/>
<path d="M80.0479 186.179C79.2042 186.179 78.4521 186.034 77.7915 185.744C77.1353 185.455 76.6133 185.052 76.2255 184.536C75.842 184.016 75.6332 183.413 75.5991 182.727H77.2099C77.244 183.149 77.3888 183.513 77.6445 183.82C77.9002 184.123 78.2347 184.357 78.6481 184.523C79.0614 184.69 79.5195 184.773 80.0224 184.773C80.5849 184.773 81.0835 184.675 81.5181 184.479C81.9528 184.283 82.2937 184.01 82.5408 183.661C82.788 183.311 82.9116 182.906 82.9116 182.446C82.9116 181.964 82.7923 181.54 82.5536 181.174C82.315 180.803 81.9656 180.513 81.5053 180.305C81.0451 180.096 80.4826 179.991 79.8178 179.991H78.7695V178.585H79.8178C80.3377 178.585 80.7937 178.491 81.1857 178.304C81.582 178.116 81.891 177.852 82.1126 177.511C82.3384 177.17 82.4513 176.77 82.4513 176.31C82.4513 175.866 82.3533 175.481 82.1573 175.153C81.9613 174.825 81.6843 174.569 81.3263 174.386C80.9727 174.202 80.555 174.111 80.0735 174.111C79.6218 174.111 79.1957 174.194 78.7951 174.36C78.3988 174.522 78.0749 174.759 77.8235 175.07C77.5721 175.376 77.4357 175.747 77.4144 176.182H75.8803C75.9059 175.496 76.1126 174.895 76.5004 174.379C76.8881 173.859 77.3952 173.455 78.0217 173.165C78.6523 172.875 79.3448 172.73 80.0991 172.73C80.9087 172.73 81.6033 172.894 82.1829 173.222C82.7624 173.546 83.2077 173.974 83.5188 174.507C83.8299 175.04 83.9854 175.615 83.9854 176.233C83.9854 176.97 83.7915 177.599 83.4038 178.119C83.0202 178.638 82.4982 178.999 81.8377 179.199V179.301C82.6644 179.437 83.31 179.789 83.7745 180.356C84.239 180.918 84.4712 181.615 84.4712 182.446C84.4712 183.158 84.2773 183.797 83.8896 184.364C83.506 184.926 82.9819 185.369 82.3171 185.693C81.6523 186.017 80.896 186.179 80.0479 186.179Z" fill="#222222"/>
<rect x="59.5" y="160.5" width="41" height="37" stroke="#2D4EC6" stroke-width="3"/>
<path d="M120.149 172.909V186H118.564V174.571H118.487L115.291 176.693V175.082L118.564 172.909H120.149ZM128.184 186.179C127.221 186.179 126.4 185.917 125.723 185.393C125.045 184.864 124.527 184.099 124.169 183.098C123.811 182.092 123.632 180.878 123.632 179.455C123.632 178.04 123.811 176.832 124.169 175.83C124.532 174.825 125.051 174.058 125.729 173.529C126.411 172.996 127.229 172.73 128.184 172.73C129.138 172.73 129.954 172.996 130.632 173.529C131.314 174.058 131.833 174.825 132.191 175.83C132.554 176.832 132.735 178.04 132.735 179.455C132.735 180.878 132.556 182.092 132.198 183.098C131.84 184.099 131.322 184.864 130.645 185.393C129.967 185.917 129.147 186.179 128.184 186.179ZM128.184 184.773C129.138 184.773 129.88 184.312 130.408 183.392C130.936 182.472 131.201 181.159 131.201 179.455C131.201 178.321 131.079 177.356 130.836 176.559C130.598 175.762 130.252 175.155 129.801 174.737C129.353 174.32 128.814 174.111 128.184 174.111C127.238 174.111 126.498 174.577 125.966 175.511C125.433 176.44 125.167 177.754 125.167 179.455C125.167 180.588 125.286 181.551 125.525 182.344C125.763 183.136 126.106 183.739 126.554 184.153C127.005 184.566 127.549 184.773 128.184 184.773Z" fill="#222222"/>
<rect x="103.5" y="160.5" width="41" height="37" stroke="#2D4EC6" stroke-width="3"/>
<path d="M164.623 186L170.478 174.418V174.315H163.728V172.909H172.114V174.392L166.285 186H164.623Z" fill="#222222"/>
<rect x="147.5" y="160.5" width="41" height="37" stroke="#2D4EC6" stroke-width="3"/>
<path d="M178 212L185.5 216.33V207.67L178 212ZM208 211.25H184.75V212.75H208V211.25Z" fill="#E4D33E"/>
<path d="M210.074 217V209.364H211.247V217H210.074ZM210.67 208.091C210.442 208.091 210.245 208.013 210.079 207.857C209.916 207.701 209.835 207.514 209.835 207.295C209.835 207.077 209.916 206.889 210.079 206.734C210.245 206.578 210.442 206.5 210.67 206.5C210.899 206.5 211.095 206.578 211.257 206.734C211.423 206.889 211.506 207.077 211.506 207.295C211.506 207.514 211.423 207.701 211.257 207.857C211.095 208.013 210.899 208.091 210.67 208.091ZM214.569 212.406V217H213.396V209.364H214.53V210.557H214.629C214.808 210.169 215.08 209.857 215.444 209.622C215.809 209.384 216.28 209.264 216.856 209.264C217.373 209.264 217.826 209.37 218.214 209.582C218.601 209.791 218.903 210.109 219.118 210.537C219.334 210.961 219.442 211.498 219.442 212.148V217H218.268V212.227C218.268 211.627 218.113 211.16 217.801 210.825C217.489 210.487 217.062 210.318 216.518 210.318C216.144 210.318 215.809 210.399 215.514 210.562C215.222 210.724 214.992 210.961 214.823 211.273C214.654 211.584 214.569 211.962 214.569 212.406ZM224.469 217.159C223.833 217.159 223.271 216.998 222.784 216.677C222.297 216.352 221.915 215.895 221.64 215.305C221.365 214.711 221.228 214.01 221.228 213.202C221.228 212.4 221.365 211.704 221.64 211.114C221.915 210.524 222.298 210.068 222.789 209.746C223.279 209.425 223.846 209.264 224.489 209.264C224.986 209.264 225.379 209.347 225.667 209.513C225.959 209.675 226.181 209.861 226.333 210.07C226.489 210.275 226.61 210.444 226.696 210.577H226.796V206.818H227.969V217H226.836V215.827H226.696C226.61 215.966 226.488 216.142 226.328 216.354C226.169 216.562 225.942 216.75 225.647 216.915C225.352 217.078 224.96 217.159 224.469 217.159ZM224.628 216.105C225.099 216.105 225.497 215.982 225.821 215.737C226.146 215.489 226.393 215.146 226.562 214.708C226.731 214.267 226.816 213.759 226.816 213.182C226.816 212.612 226.733 212.113 226.567 211.685C226.401 211.254 226.156 210.92 225.831 210.681C225.507 210.439 225.105 210.318 224.628 210.318C224.131 210.318 223.717 210.446 223.385 210.701C223.057 210.953 222.81 211.296 222.645 211.73C222.482 212.161 222.401 212.645 222.401 213.182C222.401 213.725 222.484 214.219 222.65 214.663C222.819 215.104 223.067 215.455 223.395 215.717C223.727 215.976 224.138 216.105 224.628 216.105ZM233.483 217.159C232.747 217.159 232.112 216.997 231.578 216.672C231.048 216.344 230.639 215.886 230.35 215.3C230.065 214.71 229.923 214.024 229.923 213.241C229.923 212.459 230.065 211.77 230.35 211.173C230.639 210.573 231.04 210.106 231.554 209.771C232.071 209.433 232.674 209.264 233.363 209.264C233.761 209.264 234.154 209.33 234.542 209.463C234.929 209.596 235.282 209.811 235.6 210.109C235.919 210.404 236.172 210.795 236.361 211.283C236.55 211.77 236.645 212.37 236.645 213.082V213.58H230.758V212.565H235.451C235.451 212.134 235.365 211.75 235.193 211.412C235.024 211.074 234.782 210.807 234.467 210.612C234.155 210.416 233.788 210.318 233.363 210.318C232.896 210.318 232.492 210.434 232.15 210.666C231.812 210.895 231.552 211.193 231.37 211.561C231.187 211.929 231.096 212.323 231.096 212.744V213.42C231.096 213.997 231.196 214.486 231.395 214.887C231.597 215.285 231.877 215.588 232.235 215.797C232.593 216.002 233.009 216.105 233.483 216.105C233.791 216.105 234.069 216.062 234.318 215.976C234.57 215.886 234.787 215.754 234.969 215.578C235.151 215.399 235.292 215.177 235.392 214.912L236.525 215.23C236.406 215.615 236.205 215.953 235.924 216.244C235.642 216.533 235.294 216.758 234.88 216.92C234.465 217.08 234 217.159 233.483 217.159ZM239.099 209.364L240.929 212.486L242.758 209.364H244.111L241.645 213.182L244.111 217H242.758L240.929 214.037L239.099 217H237.747L240.173 213.182L237.747 209.364H239.099Z" fill="black"/>
<path d="M36.5 218.179C35.5369 218.179 34.7166 217.917 34.0391 217.393C33.3615 216.864 32.8438 216.099 32.4858 215.098C32.1278 214.092 31.9489 212.878 31.9489 211.455C31.9489 210.04 32.1278 208.832 32.4858 207.83C32.848 206.825 33.3679 206.058 34.0455 205.529C34.7273 204.996 35.5455 204.73 36.5 204.73C37.4545 204.73 38.2706 204.996 38.9482 205.529C39.63 206.058 40.1499 206.825 40.5078 207.83C40.87 208.832 41.0511 210.04 41.0511 211.455C41.0511 212.878 40.8722 214.092 40.5142 215.098C40.1562 216.099 39.6385 216.864 38.9609 217.393C38.2834 217.917 37.4631 218.179 36.5 218.179ZM36.5 216.773C37.4545 216.773 38.196 216.312 38.7244 215.392C39.2528 214.472 39.517 213.159 39.517 211.455C39.517 210.321 39.3956 209.356 39.1527 208.559C38.9141 207.762 38.5689 207.155 38.1172 206.737C37.6697 206.32 37.1307 206.111 36.5 206.111C35.554 206.111 34.8146 206.577 34.282 207.511C33.7493 208.44 33.483 209.754 33.483 211.455C33.483 212.588 33.6023 213.551 33.8409 214.344C34.0795 215.136 34.4226 215.739 34.87 216.153C35.3217 216.566 35.8651 216.773 36.5 216.773Z" fill="black"/>
<path d="M82.2738 204.909V218H80.6886V206.571H80.6119L77.4158 208.693V207.082L80.6886 204.909H82.2738Z" fill="black"/>
<path d="M120.406 218V216.849L124.727 212.119C125.234 211.565 125.652 211.084 125.98 210.675C126.308 210.261 126.551 209.874 126.708 209.511C126.87 209.145 126.951 208.761 126.951 208.361C126.951 207.901 126.841 207.502 126.619 207.165C126.402 206.829 126.103 206.569 125.724 206.386C125.345 206.202 124.919 206.111 124.446 206.111C123.943 206.111 123.504 206.215 123.129 206.424C122.758 206.629 122.471 206.916 122.266 207.287C122.066 207.658 121.966 208.092 121.966 208.591H120.457C120.457 207.824 120.634 207.151 120.988 206.571C121.341 205.991 121.823 205.54 122.432 205.216C123.046 204.892 123.734 204.73 124.497 204.73C125.264 204.73 125.944 204.892 126.536 205.216C127.128 205.54 127.593 205.977 127.929 206.526C128.266 207.076 128.434 207.688 128.434 208.361C128.434 208.842 128.347 209.313 128.172 209.773C128.002 210.229 127.703 210.739 127.277 211.301C126.855 211.859 126.27 212.541 125.52 213.347L122.579 216.491V216.594H128.664V218H120.406Z" fill="black"/>
<path d="M168.548 218.179C167.704 218.179 166.952 218.034 166.292 217.744C165.635 217.455 165.113 217.052 164.725 216.536C164.342 216.016 164.133 215.413 164.099 214.727H165.71C165.744 215.149 165.889 215.513 166.145 215.82C166.4 216.123 166.735 216.357 167.148 216.523C167.561 216.69 168.02 216.773 168.522 216.773C169.085 216.773 169.583 216.675 170.018 216.479C170.453 216.283 170.794 216.01 171.041 215.661C171.288 215.311 171.412 214.906 171.412 214.446C171.412 213.964 171.292 213.54 171.054 213.174C170.815 212.803 170.466 212.513 170.005 212.305C169.545 212.096 168.983 211.991 168.318 211.991H167.27V210.585H168.318C168.838 210.585 169.294 210.491 169.686 210.304C170.082 210.116 170.391 209.852 170.613 209.511C170.838 209.17 170.951 208.77 170.951 208.31C170.951 207.866 170.853 207.481 170.657 207.153C170.461 206.825 170.184 206.569 169.826 206.386C169.473 206.202 169.055 206.111 168.574 206.111C168.122 206.111 167.696 206.194 167.295 206.36C166.899 206.522 166.575 206.759 166.324 207.07C166.072 207.376 165.936 207.747 165.914 208.182H164.38C164.406 207.496 164.613 206.895 165 206.379C165.388 205.859 165.895 205.455 166.522 205.165C167.152 204.875 167.845 204.73 168.599 204.73C169.409 204.73 170.103 204.894 170.683 205.222C171.262 205.546 171.708 205.974 172.019 206.507C172.33 207.04 172.485 207.615 172.485 208.233C172.485 208.97 172.292 209.599 171.904 210.119C171.52 210.638 170.998 210.999 170.338 211.199V211.301C171.164 211.437 171.81 211.789 172.275 212.356C172.739 212.918 172.971 213.615 172.971 214.446C172.971 215.158 172.777 215.797 172.39 216.364C172.006 216.926 171.482 217.369 170.817 217.693C170.152 218.017 169.396 218.179 168.548 218.179Z" fill="black"/>
</svg>
