<svg width="415" height="397" viewBox="0 0 415 397" fill="none" xmlns="http://www.w3.org/2000/svg">
<rect width="410" height="397" transform="translate(5)" fill="#F0F0F0"/>
<path d="M37 19.179C36.0369 19.179 35.2166 18.9169 34.5391 18.3928C33.8615 17.8643 33.3438 17.0994 32.9858 16.098C32.6278 15.0923 32.4489 13.8778 32.4489 12.4545C32.4489 11.0398 32.6278 9.83168 32.9858 8.83026C33.348 7.82457 33.8679 7.05753 34.5455 6.52912C35.2273 5.99645 36.0455 5.73011 37 5.73011C37.9545 5.73011 38.7706 5.99645 39.4482 6.52912C40.13 7.05753 40.6499 7.82457 41.0078 8.83026C41.37 9.83168 41.5511 11.0398 41.5511 12.4545C41.5511 13.8778 41.3722 15.0923 41.0142 16.098C40.6562 17.0994 40.1385 17.8643 39.4609 18.3928C38.7834 18.9169 37.9631 19.179 37 19.179ZM37 17.7727C37.9545 17.7727 38.696 17.3125 39.2244 16.392C39.7528 15.4716 40.017 14.1591 40.017 12.4545C40.017 11.321 39.8956 10.3558 39.6527 9.55895C39.4141 8.76207 39.0689 8.15483 38.6172 7.73722C38.1697 7.3196 37.6307 7.1108 37 7.1108C36.054 7.1108 35.3146 7.57741 34.782 8.51065C34.2493 9.43963 33.983 10.7543 33.983 12.4545C33.983 13.5881 34.1023 14.5511 34.3409 15.3438C34.5795 16.1364 34.9226 16.7393 35.37 17.1527C35.8217 17.5661 36.3651 17.7727 37 17.7727Z" fill="black"/>
<path d="M82.7738 5.90909V19H81.1886V7.57102H81.1119L77.9158 9.69318V8.08239L81.1886 5.90909H82.7738Z" fill="black"/>
<rect x="16.5" y="26.5" width="41" height="37" stroke="#2D4EC6" stroke-width="3"/>
<rect x="60.5" y="26.5" width="41" height="37" stroke="#2D4EC6" stroke-width="3"/>
<path d="M37 103.179C36.0369 103.179 35.2166 102.917 34.5391 102.393C33.8615 101.864 33.3438 101.099 32.9858 100.098C32.6278 99.0923 32.4489 97.8778 32.4489 96.4545C32.4489 95.0398 32.6278 93.8317 32.9858 92.8303C33.348 91.8246 33.8679 91.0575 34.5455 90.5291C35.2273 89.9964 36.0455 89.7301 37 89.7301C37.9545 89.7301 38.7706 89.9964 39.4482 90.5291C40.13 91.0575 40.6499 91.8246 41.0078 92.8303C41.37 93.8317 41.5511 95.0398 41.5511 96.4545C41.5511 97.8778 41.3722 99.0923 41.0142 100.098C40.6562 101.099 40.1385 101.864 39.4609 102.393C38.7834 102.917 37.9631 103.179 37 103.179ZM37 101.773C37.9545 101.773 38.696 101.312 39.2244 100.392C39.7528 99.4716 40.017 98.1591 40.017 96.4545C40.017 95.321 39.8956 94.3558 39.6527 93.5589C39.4141 92.7621 39.0689 92.1548 38.6172 91.7372C38.1697 91.3196 37.6307 91.1108 37 91.1108C36.054 91.1108 35.3146 91.5774 34.782 92.5107C34.2493 93.4396 33.983 94.7543 33.983 96.4545C33.983 97.5881 34.1023 98.5511 34.3409 99.3438C34.5795 100.136 34.9226 100.739 35.37 101.153C35.8217 101.566 36.3651 101.773 37 101.773Z" fill="black"/>
<path d="M82.7738 89.9091V103H81.1886V91.571H81.1119L77.9158 93.6932V92.0824L81.1886 89.9091H82.7738Z" fill="black"/>
<rect x="16.5" y="110.5" width="41" height="37" stroke="#39C12E" stroke-width="3"/>
<rect x="60.5" y="110.5" width="41" height="37" stroke="#39C12E" stroke-width="3"/>
<path d="M147 103.179C146.037 103.179 145.217 102.917 144.539 102.393C143.862 101.864 143.344 101.099 142.986 100.098C142.628 99.0923 142.449 97.8778 142.449 96.4545C142.449 95.0398 142.628 93.8317 142.986 92.8303C143.348 91.8246 143.868 91.0575 144.545 90.5291C145.227 89.9964 146.045 89.7301 147 89.7301C147.955 89.7301 148.771 89.9964 149.448 90.5291C150.13 91.0575 150.65 91.8246 151.008 92.8303C151.37 93.8317 151.551 95.0398 151.551 96.4545C151.551 97.8778 151.372 99.0923 151.014 100.098C150.656 101.099 150.138 101.864 149.461 102.393C148.783 102.917 147.963 103.179 147 103.179ZM147 101.773C147.955 101.773 148.696 101.312 149.224 100.392C149.753 99.4716 150.017 98.1591 150.017 96.4545C150.017 95.321 149.896 94.3558 149.653 93.5589C149.414 92.7621 149.069 92.1548 148.617 91.7372C148.17 91.3196 147.631 91.1108 147 91.1108C146.054 91.1108 145.315 91.5774 144.782 92.5107C144.249 93.4396 143.983 94.7543 143.983 96.4545C143.983 97.5881 144.102 98.5511 144.341 99.3438C144.58 100.136 144.923 100.739 145.37 101.153C145.822 101.566 146.365 101.773 147 101.773Z" fill="black"/>
<path d="M192.774 89.9091V103H191.189V91.571H191.112L187.916 93.6932V92.0824L191.189 89.9091H192.774Z" fill="black"/>
<rect x="126.5" y="110.5" width="41" height="37" stroke="#39C12E" stroke-width="3"/>
<rect x="170.5" y="110.5" width="41" height="37" stroke="#39C12E" stroke-width="3"/>
<path d="M30.6226 338L36.4777 326.418V326.315H29.7277V324.909H38.1141V326.392L32.2845 338H30.6226Z" fill="#222222"/>
<rect x="13.5" y="312.5" width="41" height="37" stroke="#8728D2" stroke-width="3"/>
<path d="M78.0024 338.179C77.1246 338.179 76.349 338.023 75.6757 337.712C75.0067 337.397 74.4846 336.964 74.1096 336.415C73.7346 335.861 73.5493 335.23 73.5535 334.523C73.5493 333.969 73.6579 333.457 73.8795 332.989C74.1011 332.516 74.4037 332.121 74.7872 331.806C75.175 331.487 75.6075 331.284 76.0848 331.199V331.122C75.4584 330.96 74.9598 330.609 74.589 330.067C74.2183 329.522 74.0351 328.902 74.0393 328.207C74.0351 327.543 74.2034 326.948 74.5443 326.424C74.8852 325.9 75.354 325.487 75.9506 325.184C76.5514 324.881 77.2354 324.73 78.0024 324.73C78.7609 324.73 79.4385 324.881 80.0351 325.184C80.6317 325.487 81.1004 325.9 81.4413 326.424C81.7865 326.948 81.9612 327.543 81.9655 328.207C81.9612 328.902 81.7716 329.522 81.3966 330.067C81.0258 330.609 80.5336 330.96 79.92 331.122V331.199C80.393 331.284 80.8192 331.487 81.1984 331.806C81.5777 332.121 81.8802 332.516 82.1061 332.989C82.3319 333.457 82.447 333.969 82.4513 334.523C82.447 335.23 82.2552 335.861 81.876 336.415C81.501 336.964 80.979 337.397 80.3099 337.712C79.6452 338.023 78.876 338.179 78.0024 338.179ZM78.0024 336.773C78.5947 336.773 79.1061 336.677 79.5365 336.485C79.9669 336.293 80.2993 336.023 80.5336 335.673C80.768 335.324 80.8873 334.915 80.8916 334.446C80.8873 333.952 80.7595 333.515 80.5081 333.136C80.2567 332.756 79.9136 332.458 79.479 332.241C79.0486 332.023 78.5564 331.915 78.0024 331.915C77.4442 331.915 76.9456 332.023 76.5067 332.241C76.072 332.458 75.729 332.756 75.4775 333.136C75.2304 333.515 75.1089 333.952 75.1132 334.446C75.1089 334.915 75.2219 335.324 75.452 335.673C75.6863 336.023 76.0209 336.293 76.4555 336.485C76.8902 336.677 77.4058 336.773 78.0024 336.773ZM78.0024 330.56C78.4711 330.56 78.8866 330.466 79.2488 330.278C79.6153 330.091 79.903 329.829 80.1118 329.492C80.3206 329.156 80.4271 328.761 80.4314 328.31C80.4271 327.866 80.3227 327.481 80.1182 327.153C79.9136 326.82 79.6302 326.565 79.268 326.386C78.9058 326.202 78.4839 326.111 78.0024 326.111C77.5123 326.111 77.0841 326.202 76.7176 326.386C76.3511 326.565 76.0677 326.82 75.8675 327.153C75.6672 327.481 75.5692 327.866 75.5734 328.31C75.5692 328.761 75.6693 329.156 75.8738 329.492C76.0827 329.829 76.3703 330.091 76.7368 330.278C77.1032 330.466 77.5251 330.56 78.0024 330.56Z" fill="#222222"/>
<rect x="57.5" y="312.5" width="41" height="37" stroke="#8728D2" stroke-width="3"/>
<path d="M122.048 338.179C121.204 338.179 120.452 338.034 119.792 337.744C119.135 337.455 118.613 337.052 118.225 336.536C117.842 336.016 117.633 335.413 117.599 334.727H119.21C119.244 335.149 119.389 335.513 119.645 335.82C119.9 336.123 120.235 336.357 120.648 336.523C121.061 336.69 121.52 336.773 122.022 336.773C122.585 336.773 123.083 336.675 123.518 336.479C123.953 336.283 124.294 336.01 124.541 335.661C124.788 335.311 124.912 334.906 124.912 334.446C124.912 333.964 124.792 333.54 124.554 333.174C124.315 332.803 123.966 332.513 123.505 332.305C123.045 332.096 122.483 331.991 121.818 331.991H120.77V330.585H121.818C122.338 330.585 122.794 330.491 123.186 330.304C123.582 330.116 123.891 329.852 124.113 329.511C124.338 329.17 124.451 328.77 124.451 328.31C124.451 327.866 124.353 327.481 124.157 327.153C123.961 326.825 123.684 326.569 123.326 326.386C122.973 326.202 122.555 326.111 122.074 326.111C121.622 326.111 121.196 326.194 120.795 326.36C120.399 326.522 120.075 326.759 119.824 327.07C119.572 327.376 119.436 327.747 119.414 328.182H117.88C117.906 327.496 118.113 326.895 118.5 326.379C118.888 325.859 119.395 325.455 120.022 325.165C120.652 324.875 121.345 324.73 122.099 324.73C122.909 324.73 123.603 324.894 124.183 325.222C124.762 325.546 125.208 325.974 125.519 326.507C125.83 327.04 125.985 327.615 125.985 328.233C125.985 328.97 125.792 329.599 125.404 330.119C125.02 330.638 124.498 330.999 123.838 331.199V331.301C124.664 331.437 125.31 331.789 125.775 332.356C126.239 332.918 126.471 333.615 126.471 334.446C126.471 335.158 126.277 335.797 125.89 336.364C125.506 336.926 124.982 337.369 124.317 337.693C123.652 338.017 122.896 338.179 122.048 338.179Z" fill="#222222"/>
<rect x="101.5" y="312.5" width="41" height="37" stroke="#8728D2" stroke-width="3"/>
<path d="M34 370.179C33.0369 370.179 32.2166 369.917 31.5391 369.393C30.8615 368.864 30.3438 368.099 29.9858 367.098C29.6278 366.092 29.4489 364.878 29.4489 363.455C29.4489 362.04 29.6278 360.832 29.9858 359.83C30.348 358.825 30.8679 358.058 31.5455 357.529C32.2273 356.996 33.0455 356.73 34 356.73C34.9545 356.73 35.7706 356.996 36.4482 357.529C37.13 358.058 37.6499 358.825 38.0078 359.83C38.37 360.832 38.5511 362.04 38.5511 363.455C38.5511 364.878 38.3722 366.092 38.0142 367.098C37.6562 368.099 37.1385 368.864 36.4609 369.393C35.7834 369.917 34.9631 370.179 34 370.179ZM34 368.773C34.9545 368.773 35.696 368.312 36.2244 367.392C36.7528 366.472 37.017 365.159 37.017 363.455C37.017 362.321 36.8956 361.356 36.6527 360.559C36.4141 359.762 36.0689 359.155 35.6172 358.737C35.1697 358.32 34.6307 358.111 34 358.111C33.054 358.111 32.3146 358.577 31.782 359.511C31.2493 360.44 30.983 361.754 30.983 363.455C30.983 364.588 31.1023 365.551 31.3409 366.344C31.5795 367.136 31.9226 367.739 32.37 368.153C32.8217 368.566 33.3651 368.773 34 368.773Z" fill="black"/>
<path d="M79.7738 356.909V370H78.1886V358.571H78.1119L74.9158 360.693V359.082L78.1886 356.909H79.7738Z" fill="black"/>
<path d="M117.906 370V368.849L122.227 364.119C122.734 363.565 123.152 363.084 123.48 362.675C123.808 362.261 124.051 361.874 124.208 361.511C124.37 361.145 124.451 360.761 124.451 360.361C124.451 359.901 124.341 359.502 124.119 359.165C123.902 358.829 123.603 358.569 123.224 358.386C122.845 358.202 122.419 358.111 121.946 358.111C121.443 358.111 121.004 358.215 120.629 358.424C120.258 358.629 119.971 358.916 119.766 359.287C119.566 359.658 119.466 360.092 119.466 360.591H117.957C117.957 359.824 118.134 359.151 118.488 358.571C118.841 357.991 119.323 357.54 119.932 357.216C120.546 356.892 121.234 356.73 121.997 356.73C122.764 356.73 123.444 356.892 124.036 357.216C124.628 357.54 125.093 357.977 125.429 358.526C125.766 359.076 125.934 359.688 125.934 360.361C125.934 360.842 125.847 361.313 125.672 361.773C125.502 362.229 125.203 362.739 124.777 363.301C124.355 363.859 123.77 364.541 123.02 365.347L120.079 368.491V368.594H126.164V370H117.906Z" fill="black"/>
<path d="M78.1488 259.909V273H76.5636V261.571H76.4869L73.2908 263.693V262.082L76.5636 259.909H78.1488ZM86.1836 273.179C85.2205 273.179 84.4002 272.917 83.7227 272.393C83.0451 271.864 82.5273 271.099 82.1694 270.098C81.8114 269.092 81.6325 267.878 81.6325 266.455C81.6325 265.04 81.8114 263.832 82.1694 262.83C82.5316 261.825 83.0515 261.058 83.729 260.529C84.4109 259.996 85.229 259.73 86.1836 259.73C87.1381 259.73 87.9542 259.996 88.6317 260.529C89.3136 261.058 89.8335 261.825 90.1914 262.83C90.5536 263.832 90.7347 265.04 90.7347 266.455C90.7347 267.878 90.5558 269.092 90.1978 270.098C89.8398 271.099 89.3221 271.864 88.6445 272.393C87.967 272.917 87.1467 273.179 86.1836 273.179ZM86.1836 271.773C87.1381 271.773 87.8796 271.312 88.408 270.392C88.9364 269.472 89.2006 268.159 89.2006 266.455C89.2006 265.321 89.0792 264.356 88.8363 263.559C88.5977 262.762 88.2525 262.155 87.8008 261.737C87.3533 261.32 86.8143 261.111 86.1836 261.111C85.2376 261.111 84.4982 261.577 83.9656 262.511C83.4329 263.44 83.1665 264.754 83.1665 266.455C83.1665 267.588 83.2859 268.551 83.5245 269.344C83.7631 270.136 84.1062 270.739 84.5536 271.153C85.0053 271.566 85.5487 271.773 86.1836 271.773Z" fill="#222222"/>
<rect x="61.5" y="247.5" width="41" height="37" stroke="#8728D2" stroke-width="3"/>
<path d="M122.325 259.909V273H120.739V261.571H120.663L117.467 263.693V262.082L120.739 259.909H122.325ZM126.089 273V271.849L130.411 267.119C130.918 266.565 131.335 266.084 131.663 265.675C131.991 265.261 132.234 264.874 132.392 264.511C132.554 264.145 132.635 263.761 132.635 263.361C132.635 262.901 132.524 262.502 132.303 262.165C132.085 261.829 131.787 261.569 131.408 261.386C131.028 261.202 130.602 261.111 130.129 261.111C129.626 261.111 129.188 261.215 128.812 261.424C128.442 261.629 128.154 261.916 127.95 262.287C127.749 262.658 127.649 263.092 127.649 263.591H126.141C126.141 262.824 126.317 262.151 126.671 261.571C127.025 260.991 127.506 260.54 128.116 260.216C128.729 259.892 129.418 259.73 130.18 259.73C130.947 259.73 131.627 259.892 132.219 260.216C132.812 260.54 133.276 260.977 133.613 261.526C133.95 262.076 134.118 262.688 134.118 263.361C134.118 263.842 134.031 264.313 133.856 264.773C133.685 265.229 133.387 265.739 132.961 266.301C132.539 266.859 131.953 267.541 131.203 268.347L128.263 271.491V271.594H134.348V273H126.089Z" fill="#222222"/>
<rect x="105.5" y="247.5" width="41" height="37" stroke="#8728D2" stroke-width="3"/>
<path d="M160.281 273V271.849L164.602 267.119C165.109 266.565 165.527 266.084 165.855 265.675C166.183 265.261 166.426 264.874 166.583 264.511C166.745 264.145 166.826 263.761 166.826 263.361C166.826 262.901 166.716 262.502 166.494 262.165C166.277 261.829 165.978 261.569 165.599 261.386C165.22 261.202 164.794 261.111 164.321 261.111C163.818 261.111 163.379 261.215 163.004 261.424C162.633 261.629 162.346 261.916 162.141 262.287C161.941 262.658 161.841 263.092 161.841 263.591H160.332C160.332 262.824 160.509 262.151 160.863 261.571C161.216 260.991 161.698 260.54 162.307 260.216C162.921 259.892 163.609 259.73 164.372 259.73C165.139 259.73 165.819 259.892 166.411 260.216C167.003 260.54 167.468 260.977 167.804 261.526C168.141 262.076 168.309 262.688 168.309 263.361C168.309 263.842 168.222 264.313 168.047 264.773C167.877 265.229 167.578 265.739 167.152 266.301C166.73 266.859 166.145 267.541 165.395 268.347L162.454 271.491V271.594H168.539V273H160.281ZM175.449 273.179C174.486 273.179 173.666 272.917 172.988 272.393C172.311 271.864 171.793 271.099 171.435 270.098C171.077 269.092 170.898 267.878 170.898 266.455C170.898 265.04 171.077 263.832 171.435 262.83C171.797 261.825 172.317 261.058 172.995 260.529C173.676 259.996 174.495 259.73 175.449 259.73C176.404 259.73 177.22 259.996 177.897 260.529C178.579 261.058 179.099 261.825 179.457 262.83C179.819 263.832 180 265.04 180 266.455C180 267.878 179.821 269.092 179.463 270.098C179.105 271.099 178.588 271.864 177.91 272.393C177.233 272.917 176.412 273.179 175.449 273.179ZM175.449 271.773C176.404 271.773 177.145 271.312 177.674 270.392C178.202 269.472 178.466 268.159 178.466 266.455C178.466 265.321 178.345 264.356 178.102 263.559C177.863 262.762 177.518 262.155 177.066 261.737C176.619 261.32 176.08 261.111 175.449 261.111C174.503 261.111 173.764 261.577 173.231 262.511C172.699 263.44 172.432 264.754 172.432 266.455C172.432 267.588 172.551 268.551 172.79 269.344C173.029 270.136 173.372 270.739 173.819 271.153C174.271 271.566 174.814 271.773 175.449 271.773Z" fill="#222222"/>
<rect x="149.5" y="247.5" width="41" height="37" stroke="#8728D2" stroke-width="3"/>
<path d="M82 305.179C81.0369 305.179 80.2166 304.917 79.5391 304.393C78.8615 303.864 78.3438 303.099 77.9858 302.098C77.6278 301.092 77.4489 299.878 77.4489 298.455C77.4489 297.04 77.6278 295.832 77.9858 294.83C78.348 293.825 78.8679 293.058 79.5455 292.529C80.2273 291.996 81.0455 291.73 82 291.73C82.9545 291.73 83.7706 291.996 84.4482 292.529C85.13 293.058 85.6499 293.825 86.0078 294.83C86.37 295.832 86.5511 297.04 86.5511 298.455C86.5511 299.878 86.3722 301.092 86.0142 302.098C85.6562 303.099 85.1385 303.864 84.4609 304.393C83.7834 304.917 82.9631 305.179 82 305.179ZM82 303.773C82.9545 303.773 83.696 303.312 84.2244 302.392C84.7528 301.472 85.017 300.159 85.017 298.455C85.017 297.321 84.8956 296.356 84.6527 295.559C84.4141 294.762 84.0689 294.155 83.6172 293.737C83.1697 293.32 82.6307 293.111 82 293.111C81.054 293.111 80.3146 293.577 79.782 294.511C79.2493 295.44 78.983 296.754 78.983 298.455C78.983 299.588 79.1023 300.551 79.3409 301.344C79.5795 302.136 79.9226 302.739 80.37 303.153C80.8217 303.566 81.3651 303.773 82 303.773Z" fill="black"/>
<path d="M127.774 291.909V305H126.189V293.571H126.112L122.916 295.693V294.082L126.189 291.909H127.774Z" fill="black"/>
<path d="M165.906 305V303.849L170.227 299.119C170.734 298.565 171.152 298.084 171.48 297.675C171.808 297.261 172.051 296.874 172.208 296.511C172.37 296.145 172.451 295.761 172.451 295.361C172.451 294.901 172.341 294.502 172.119 294.165C171.902 293.829 171.603 293.569 171.224 293.386C170.845 293.202 170.419 293.111 169.946 293.111C169.443 293.111 169.004 293.215 168.629 293.424C168.258 293.629 167.971 293.916 167.766 294.287C167.566 294.658 167.466 295.092 167.466 295.591H165.957C165.957 294.824 166.134 294.151 166.488 293.571C166.841 292.991 167.323 292.54 167.932 292.216C168.546 291.892 169.234 291.73 169.997 291.73C170.764 291.73 171.444 291.892 172.036 292.216C172.628 292.54 173.093 292.977 173.429 293.526C173.766 294.076 173.934 294.688 173.934 295.361C173.934 295.842 173.847 296.313 173.672 296.773C173.502 297.229 173.203 297.739 172.777 298.301C172.355 298.859 171.77 299.541 171.02 300.347L168.079 303.491V303.594H174.164V305H165.906Z" fill="black"/>
<path d="M144.59 186.909V200H143.005V188.571H142.928L139.732 190.693V189.082L143.005 186.909H144.59ZM152.957 186.909V200H151.372V188.571H151.295L148.099 190.693V189.082L151.372 186.909H152.957Z" fill="#222222"/>
<rect x="126.5" y="174.5" width="41" height="37" stroke="#8728D2" stroke-width="3"/>
<path d="M187.298 186.909V200H185.713V188.571H185.636L182.44 190.693V189.082L185.713 186.909H187.298ZM195.154 200.179C194.404 200.179 193.729 200.03 193.128 199.732C192.527 199.433 192.045 199.024 191.683 198.504C191.321 197.984 191.123 197.392 191.089 196.727H192.623C192.682 197.32 192.951 197.81 193.428 198.197C193.91 198.581 194.485 198.773 195.154 198.773C195.691 198.773 196.168 198.647 196.586 198.396C197.008 198.144 197.338 197.799 197.577 197.36C197.82 196.917 197.941 196.416 197.941 195.858C197.941 195.287 197.815 194.778 197.564 194.33C197.317 193.879 196.976 193.523 196.541 193.263C196.106 193.003 195.61 192.871 195.052 192.866C194.651 192.862 194.24 192.924 193.818 193.052C193.396 193.175 193.049 193.335 192.776 193.531L191.293 193.352L192.086 186.909H198.887V188.315H193.415L192.955 192.176H193.032C193.3 191.963 193.637 191.786 194.042 191.646C194.447 191.505 194.869 191.435 195.307 191.435C196.109 191.435 196.822 191.626 197.449 192.01C198.079 192.389 198.574 192.909 198.932 193.57C199.294 194.23 199.475 194.984 199.475 195.832C199.475 196.668 199.288 197.413 198.913 198.07C198.542 198.722 198.03 199.237 197.378 199.616C196.726 199.991 195.985 200.179 195.154 200.179Z" fill="#222222"/>
<rect x="170.5" y="174.5" width="41" height="37" stroke="#8728D2" stroke-width="3"/>
<path d="M235.048 200.179C234.204 200.179 233.452 200.034 232.792 199.744C232.135 199.455 231.613 199.052 231.225 198.536C230.842 198.016 230.633 197.413 230.599 196.727H232.21C232.244 197.149 232.389 197.513 232.645 197.82C232.9 198.123 233.235 198.357 233.648 198.523C234.061 198.69 234.52 198.773 235.022 198.773C235.585 198.773 236.083 198.675 236.518 198.479C236.953 198.283 237.294 198.01 237.541 197.661C237.788 197.311 237.912 196.906 237.912 196.446C237.912 195.964 237.792 195.54 237.554 195.174C237.315 194.803 236.966 194.513 236.505 194.305C236.045 194.096 235.483 193.991 234.818 193.991H233.77V192.585H234.818C235.338 192.585 235.794 192.491 236.186 192.304C236.582 192.116 236.891 191.852 237.113 191.511C237.338 191.17 237.451 190.77 237.451 190.31C237.451 189.866 237.353 189.481 237.157 189.153C236.961 188.825 236.684 188.569 236.326 188.386C235.973 188.202 235.555 188.111 235.074 188.111C234.622 188.111 234.196 188.194 233.795 188.36C233.399 188.522 233.075 188.759 232.824 189.07C232.572 189.376 232.436 189.747 232.414 190.182H230.88C230.906 189.496 231.113 188.895 231.5 188.379C231.888 187.859 232.395 187.455 233.022 187.165C233.652 186.875 234.345 186.73 235.099 186.73C235.909 186.73 236.603 186.894 237.183 187.222C237.762 187.546 238.208 187.974 238.519 188.507C238.83 189.04 238.985 189.615 238.985 190.233C238.985 190.97 238.792 191.599 238.404 192.119C238.02 192.638 237.498 192.999 236.838 193.199V193.301C237.664 193.437 238.31 193.789 238.775 194.356C239.239 194.918 239.471 195.615 239.471 196.446C239.471 197.158 239.277 197.797 238.89 198.364C238.506 198.926 237.982 199.369 237.317 199.693C236.652 200.017 235.896 200.179 235.048 200.179Z" fill="#222222"/>
<rect x="214.5" y="174.5" width="41" height="37" stroke="#8728D2" stroke-width="3"/>
<path d="M147 232.179C146.037 232.179 145.217 231.917 144.539 231.393C143.862 230.864 143.344 230.099 142.986 229.098C142.628 228.092 142.449 226.878 142.449 225.455C142.449 224.04 142.628 222.832 142.986 221.83C143.348 220.825 143.868 220.058 144.545 219.529C145.227 218.996 146.045 218.73 147 218.73C147.955 218.73 148.771 218.996 149.448 219.529C150.13 220.058 150.65 220.825 151.008 221.83C151.37 222.832 151.551 224.04 151.551 225.455C151.551 226.878 151.372 228.092 151.014 229.098C150.656 230.099 150.138 230.864 149.461 231.393C148.783 231.917 147.963 232.179 147 232.179ZM147 230.773C147.955 230.773 148.696 230.312 149.224 229.392C149.753 228.472 150.017 227.159 150.017 225.455C150.017 224.321 149.896 223.356 149.653 222.559C149.414 221.762 149.069 221.155 148.617 220.737C148.17 220.32 147.631 220.111 147 220.111C146.054 220.111 145.315 220.577 144.782 221.511C144.249 222.44 143.983 223.754 143.983 225.455C143.983 226.588 144.102 227.551 144.341 228.344C144.58 229.136 144.923 229.739 145.37 230.153C145.822 230.566 146.365 230.773 147 230.773Z" fill="black"/>
<path d="M192.774 218.909V232H191.189V220.571H191.112L187.916 222.693V221.082L191.189 218.909H192.774Z" fill="black"/>
<path d="M230.906 232V230.849L235.227 226.119C235.734 225.565 236.152 225.084 236.48 224.675C236.808 224.261 237.051 223.874 237.208 223.511C237.37 223.145 237.451 222.761 237.451 222.361C237.451 221.901 237.341 221.502 237.119 221.165C236.902 220.829 236.603 220.569 236.224 220.386C235.845 220.202 235.419 220.111 234.946 220.111C234.443 220.111 234.004 220.215 233.629 220.424C233.258 220.629 232.971 220.916 232.766 221.287C232.566 221.658 232.466 222.092 232.466 222.591H230.957C230.957 221.824 231.134 221.151 231.488 220.571C231.841 219.991 232.323 219.54 232.932 219.216C233.546 218.892 234.234 218.73 234.997 218.73C235.764 218.73 236.444 218.892 237.036 219.216C237.628 219.54 238.093 219.977 238.429 220.526C238.766 221.076 238.934 221.688 238.934 222.361C238.934 222.842 238.847 223.313 238.672 223.773C238.502 224.229 238.203 224.739 237.777 225.301C237.355 225.859 236.77 226.541 236.02 227.347L233.079 230.491V230.594H239.164V232H230.906Z" fill="black"/>
<path d="M147 172L152.774 162H141.226L147 172ZM146 154V163H148V154H146Z" fill="#8728D1"/>
<path d="M269 136.179C268.037 136.179 267.217 135.917 266.539 135.393C265.862 134.864 265.344 134.099 264.986 133.098C264.628 132.092 264.449 130.878 264.449 129.455C264.449 128.04 264.628 126.832 264.986 125.83C265.348 124.825 265.868 124.058 266.545 123.529C267.227 122.996 268.045 122.73 269 122.73C269.955 122.73 270.771 122.996 271.448 123.529C272.13 124.058 272.65 124.825 273.008 125.83C273.37 126.832 273.551 128.04 273.551 129.455C273.551 130.878 273.372 132.092 273.014 133.098C272.656 134.099 272.138 134.864 271.461 135.393C270.783 135.917 269.963 136.179 269 136.179ZM269 134.773C269.955 134.773 270.696 134.312 271.224 133.392C271.753 132.472 272.017 131.159 272.017 129.455C272.017 128.321 271.896 127.356 271.653 126.559C271.414 125.762 271.069 125.155 270.617 124.737C270.17 124.32 269.631 124.111 269 124.111C268.054 124.111 267.315 124.577 266.782 125.511C266.249 126.44 265.983 127.754 265.983 129.455C265.983 130.588 266.102 131.551 266.341 132.344C266.58 133.136 266.923 133.739 267.37 134.153C267.822 134.566 268.365 134.773 269 134.773Z" fill="#222222"/>
<rect x="248.5" y="110.5" width="41" height="37" stroke="#8728D2" stroke-width="3"/>
<path d="M308.906 136V134.849L313.227 130.119C313.734 129.565 314.152 129.084 314.48 128.675C314.808 128.261 315.051 127.874 315.208 127.511C315.37 127.145 315.451 126.761 315.451 126.361C315.451 125.901 315.341 125.502 315.119 125.165C314.902 124.829 314.603 124.569 314.224 124.386C313.845 124.202 313.419 124.111 312.946 124.111C312.443 124.111 312.004 124.215 311.629 124.424C311.258 124.629 310.971 124.916 310.766 125.287C310.566 125.658 310.466 126.092 310.466 126.591H308.957C308.957 125.824 309.134 125.151 309.488 124.571C309.841 123.991 310.323 123.54 310.932 123.216C311.546 122.892 312.234 122.73 312.997 122.73C313.764 122.73 314.444 122.892 315.036 123.216C315.628 123.54 316.093 123.977 316.429 124.526C316.766 125.076 316.934 125.688 316.934 126.361C316.934 126.842 316.847 127.313 316.672 127.773C316.502 128.229 316.203 128.739 315.777 129.301C315.355 129.859 314.77 130.541 314.02 131.347L311.079 134.491V134.594H317.164V136H308.906Z" fill="#222222"/>
<rect x="292.5" y="110.5" width="41" height="37" stroke="#8728D2" stroke-width="3"/>
<path d="M353.632 122.909V136H352.047V124.571H351.97L348.774 126.693V125.082L352.047 122.909H353.632ZM357.806 136L363.661 124.418V124.315H356.911V122.909H365.298V124.392L359.468 136H357.806Z" fill="#222222"/>
<rect x="336.5" y="110.5" width="41" height="37" stroke="#8728D2" stroke-width="3"/>
<path d="M269 168.179C268.037 168.179 267.217 167.917 266.539 167.393C265.862 166.864 265.344 166.099 264.986 165.098C264.628 164.092 264.449 162.878 264.449 161.455C264.449 160.04 264.628 158.832 264.986 157.83C265.348 156.825 265.868 156.058 266.545 155.529C267.227 154.996 268.045 154.73 269 154.73C269.955 154.73 270.771 154.996 271.448 155.529C272.13 156.058 272.65 156.825 273.008 157.83C273.37 158.832 273.551 160.04 273.551 161.455C273.551 162.878 273.372 164.092 273.014 165.098C272.656 166.099 272.138 166.864 271.461 167.393C270.783 167.917 269.963 168.179 269 168.179ZM269 166.773C269.955 166.773 270.696 166.312 271.224 165.392C271.753 164.472 272.017 163.159 272.017 161.455C272.017 160.321 271.896 159.356 271.653 158.559C271.414 157.762 271.069 157.155 270.617 156.737C270.17 156.32 269.631 156.111 269 156.111C268.054 156.111 267.315 156.577 266.782 157.511C266.249 158.44 265.983 159.754 265.983 161.455C265.983 162.588 266.102 163.551 266.341 164.344C266.58 165.136 266.923 165.739 267.37 166.153C267.822 166.566 268.365 166.773 269 166.773Z" fill="black"/>
<path d="M314.774 154.909V168H313.189V156.571H313.112L309.916 158.693V157.082L313.189 154.909H314.774Z" fill="black"/>
<path d="M352.906 168V166.849L357.227 162.119C357.734 161.565 358.152 161.084 358.48 160.675C358.808 160.261 359.051 159.874 359.208 159.511C359.37 159.145 359.451 158.761 359.451 158.361C359.451 157.901 359.341 157.502 359.119 157.165C358.902 156.829 358.603 156.569 358.224 156.386C357.845 156.202 357.419 156.111 356.946 156.111C356.443 156.111 356.004 156.215 355.629 156.424C355.258 156.629 354.971 156.916 354.766 157.287C354.566 157.658 354.466 158.092 354.466 158.591H352.957C352.957 157.824 353.134 157.151 353.488 156.571C353.841 155.991 354.323 155.54 354.932 155.216C355.546 154.892 356.234 154.73 356.997 154.73C357.764 154.73 358.444 154.892 359.036 155.216C359.628 155.54 360.093 155.977 360.429 156.526C360.766 157.076 360.934 157.688 360.934 158.361C360.934 158.842 360.847 159.313 360.672 159.773C360.502 160.229 360.203 160.739 359.777 161.301C359.355 161.859 358.77 162.541 358.02 163.347L355.079 166.491V166.594H361.164V168H352.906Z" fill="black"/>
<path d="M59 106L58.5663 94.4611L48.7902 100.606L59 106ZM36.1534 71.5322L53.3638 98.9124L55.0571 97.8481L37.8466 70.4678L36.1534 71.5322Z" fill="#39C02E"/>
<path d="M169 47H170V46H169V47ZM169 106L174.774 96H163.226L169 106ZM106 48H169V46H106V48ZM168 47V97H170V47H168Z" fill="#39C02E"/>
<path d="M35 299L40.7735 289H29.2265L35 299ZM34 156V290H36V156H34Z" fill="#8728D1"/>
<path d="M81 240L86.8921 230.069L75.3459 229.932L81 240ZM81.0001 155.988L80.1072 230.989L82.1071 231.013L82.9999 156.012L81.0001 155.988Z" fill="#8728D1"/>
<path d="M244 129L234 123.226V134.774L244 129ZM218 130H235V128H218V130Z" fill="#8728D1"/>
</svg>
