<svg width="310" height="123" viewBox="0 0 310 123" fill="none" xmlns="http://www.w3.org/2000/svg">
<rect width="310" height="123" fill="#F0F0F0"/>
<path d="M98.9059 50V48.8494L103.227 44.1193C103.734 43.5653 104.152 43.0838 104.48 42.6747C104.808 42.2614 105.051 41.8736 105.208 41.5114C105.37 41.1449 105.451 40.7614 105.451 40.3608C105.451 39.9006 105.341 39.5021 105.119 39.1655C104.902 38.8288 104.603 38.5689 104.224 38.3857C103.845 38.2024 103.419 38.1108 102.946 38.1108C102.443 38.1108 102.004 38.2152 101.629 38.424C101.258 38.6286 100.971 38.9162 100.766 39.2869C100.566 39.6577 100.466 40.0923 100.466 40.5909H98.957C98.957 39.8239 99.1339 39.1506 99.4876 38.571C99.8413 37.9915 100.323 37.5398 100.932 37.2159C101.546 36.892 102.234 36.7301 102.997 36.7301C103.764 36.7301 104.444 36.892 105.036 37.2159C105.628 37.5398 106.093 37.9766 106.429 38.5263C106.766 39.076 106.934 39.6875 106.934 40.3608C106.934 40.8423 106.847 41.3132 106.672 41.7734C106.502 42.2294 106.203 42.7386 105.777 43.3011C105.355 43.8594 104.77 44.5412 104.02 45.3466L101.079 48.4915V48.5938H107.164V50H98.9059Z" fill="#222222"/>
<rect x="82.5" y="24.5" width="41" height="37" stroke="#936DE4" stroke-width="3"/>
<path d="M142.906 50V48.8494L147.227 44.1193C147.734 43.5653 148.152 43.0838 148.48 42.6747C148.808 42.2614 149.051 41.8736 149.208 41.5114C149.37 41.1449 149.451 40.7614 149.451 40.3608C149.451 39.9006 149.341 39.5021 149.119 39.1655C148.902 38.8288 148.603 38.5689 148.224 38.3857C147.845 38.2024 147.419 38.1108 146.946 38.1108C146.443 38.1108 146.004 38.2152 145.629 38.424C145.258 38.6286 144.971 38.9162 144.766 39.2869C144.566 39.6577 144.466 40.0923 144.466 40.5909H142.957C142.957 39.8239 143.134 39.1506 143.488 38.571C143.841 37.9915 144.323 37.5398 144.932 37.2159C145.546 36.892 146.234 36.7301 146.997 36.7301C147.764 36.7301 148.444 36.892 149.036 37.2159C149.628 37.5398 150.093 37.9766 150.429 38.5263C150.766 39.076 150.934 39.6875 150.934 40.3608C150.934 40.8423 150.847 41.3132 150.672 41.7734C150.502 42.2294 150.203 42.7386 149.777 43.3011C149.355 43.8594 148.77 44.5412 148.02 45.3466L145.079 48.4915V48.5938H151.164V50H142.906Z" fill="#222222"/>
<rect x="126.5" y="24.5" width="41" height="37" stroke="#936DE4" stroke-width="3"/>
<path d="M186.274 47.3153V46.0114L192.027 36.9091H192.973V38.929H192.334L187.987 45.8068V45.9091H195.734V47.3153H186.274ZM192.436 50V46.919V46.3118V36.9091H193.944V50H192.436Z" fill="#222222"/>
<rect x="170.5" y="24.5" width="41" height="37" stroke="#936DE4" stroke-width="3"/>
<path d="M236.774 36.9091V50H235.189V38.571H235.112L231.916 40.6932V39.0824L235.189 36.9091H236.774Z" fill="#222222"/>
<rect x="214.5" y="24.5" width="41" height="37" stroke="#936DE4" stroke-width="3"/>
<path d="M280.774 36.9091V50H279.189V38.571H279.112L275.916 40.6932V39.0824L279.189 36.9091H280.774Z" fill="#222222"/>
<rect x="258.5" y="24.5" width="41" height="37" stroke="#936DE4" stroke-width="3"/>
<path d="M103 67L100.113 72L105.887 72L103 67ZM103.5 94L103.5 71.5L102.5 71.5L102.5 94L103.5 94Z" fill="#FF4D4D"/>
<path d="M149 67L146.113 72L151.887 72L149 67ZM149.5 94L149.5 71.5L148.5 71.5L148.5 94L149.5 94Z" fill="#FF4D4D"/>
<path d="M195 67L192.113 72L197.887 72L195 67ZM195.5 94L195.5 71.5L194.5 71.5L194.5 94L195.5 94Z" fill="#FF4D4D"/>
<path d="M241 67L238.113 72L243.887 72L241 67ZM241.5 94L241.5 71.5L240.5 71.5L240.5 94L241.5 94Z" fill="#FF4D4D"/>
<path d="M287 67L284.113 72L289.887 72L287 67ZM287.5 94L287.5 71.5L286.5 71.5L286.5 94L287.5 94Z" fill="#FF4D4D"/>
<path d="M103 112.179C102.037 112.179 101.217 111.917 100.539 111.393C99.8615 110.864 99.3438 110.099 98.9858 109.098C98.6278 108.092 98.4489 106.878 98.4489 105.455C98.4489 104.04 98.6278 102.832 98.9858 101.83C99.348 100.825 99.8679 100.058 100.545 99.5291C101.227 98.9964 102.045 98.7301 103 98.7301C103.955 98.7301 104.771 98.9964 105.448 99.5291C106.13 100.058 106.65 100.825 107.008 101.83C107.37 102.832 107.551 104.04 107.551 105.455C107.551 106.878 107.372 108.092 107.014 109.098C106.656 110.099 106.138 110.864 105.461 111.393C104.783 111.917 103.963 112.179 103 112.179ZM103 110.773C103.955 110.773 104.696 110.312 105.224 109.392C105.753 108.472 106.017 107.159 106.017 105.455C106.017 104.321 105.896 103.356 105.653 102.559C105.414 101.762 105.069 101.155 104.617 100.737C104.17 100.32 103.631 100.111 103 100.111C102.054 100.111 101.315 100.577 100.782 101.511C100.249 102.44 99.983 103.754 99.983 105.455C99.983 106.588 100.102 107.551 100.341 108.344C100.58 109.136 100.923 109.739 101.37 110.153C101.822 110.566 102.365 110.773 103 110.773Z" fill="black"/>
<path d="M150.274 98.9091V112H148.689V100.571H148.612L145.416 102.693V101.082L148.689 98.9091H150.274Z" fill="black"/>
<path d="M189.406 112V110.849L193.727 106.119C194.234 105.565 194.652 105.084 194.98 104.675C195.308 104.261 195.551 103.874 195.708 103.511C195.87 103.145 195.951 102.761 195.951 102.361C195.951 101.901 195.841 101.502 195.619 101.165C195.402 100.829 195.103 100.569 194.724 100.386C194.345 100.202 193.919 100.111 193.446 100.111C192.943 100.111 192.504 100.215 192.129 100.424C191.758 100.629 191.471 100.916 191.266 101.287C191.066 101.658 190.966 102.092 190.966 102.591H189.457C189.457 101.824 189.634 101.151 189.988 100.571C190.341 99.9915 190.823 99.5398 191.432 99.2159C192.046 98.892 192.734 98.7301 193.497 98.7301C194.264 98.7301 194.944 98.892 195.536 99.2159C196.128 99.5398 196.593 99.9766 196.929 100.526C197.266 101.076 197.434 101.688 197.434 102.361C197.434 102.842 197.347 103.313 197.172 103.773C197.002 104.229 196.703 104.739 196.277 105.301C195.855 105.859 195.27 106.541 194.52 107.347L191.579 110.491V110.594H197.664V112H189.406Z" fill="black"/>
<path d="M240.048 112.179C239.204 112.179 238.452 112.034 237.792 111.744C237.135 111.455 236.613 111.052 236.225 110.536C235.842 110.016 235.633 109.413 235.599 108.727H237.21C237.244 109.149 237.389 109.513 237.645 109.82C237.9 110.123 238.235 110.357 238.648 110.523C239.061 110.69 239.52 110.773 240.022 110.773C240.585 110.773 241.083 110.675 241.518 110.479C241.953 110.283 242.294 110.01 242.541 109.661C242.788 109.311 242.912 108.906 242.912 108.446C242.912 107.964 242.792 107.54 242.554 107.174C242.315 106.803 241.966 106.513 241.505 106.305C241.045 106.096 240.483 105.991 239.818 105.991H238.77V104.585H239.818C240.338 104.585 240.794 104.491 241.186 104.304C241.582 104.116 241.891 103.852 242.113 103.511C242.338 103.17 242.451 102.77 242.451 102.31C242.451 101.866 242.353 101.481 242.157 101.153C241.961 100.825 241.684 100.569 241.326 100.386C240.973 100.202 240.555 100.111 240.074 100.111C239.622 100.111 239.196 100.194 238.795 100.36C238.399 100.522 238.075 100.759 237.824 101.07C237.572 101.376 237.436 101.747 237.414 102.182H235.88C235.906 101.496 236.113 100.895 236.5 100.379C236.888 99.8594 237.395 99.4545 238.022 99.1648C238.652 98.875 239.345 98.7301 240.099 98.7301C240.909 98.7301 241.603 98.8942 242.183 99.2223C242.762 99.5462 243.208 99.9744 243.519 100.507C243.83 101.04 243.985 101.615 243.985 102.233C243.985 102.97 243.792 103.599 243.404 104.119C243.02 104.638 242.498 104.999 241.838 105.199V105.301C242.664 105.437 243.31 105.789 243.775 106.356C244.239 106.918 244.471 107.615 244.471 108.446C244.471 109.158 244.277 109.797 243.89 110.364C243.506 110.926 242.982 111.369 242.317 111.693C241.652 112.017 240.896 112.179 240.048 112.179Z" fill="black"/>
<path d="M282.274 109.315V108.011L288.027 98.9091H288.973V100.929H288.334L283.987 107.807V107.909H291.734V109.315H282.274ZM288.436 112V108.919V108.312V98.9091H289.944V112H288.436Z" fill="black"/>
<path d="M30.2184 110V102.364H31.3917V110H30.2184ZM30.815 101.091C30.5863 101.091 30.3891 101.013 30.2234 100.857C30.061 100.701 29.9798 100.514 29.9798 100.295C29.9798 100.077 30.061 99.8894 30.2234 99.7337C30.3891 99.5779 30.5863 99.5 30.815 99.5C31.0437 99.5 31.2392 99.5779 31.4016 99.7337C31.5674 99.8894 31.6502 100.077 31.6502 100.295C31.6502 100.514 31.5674 100.701 31.4016 100.857C31.2392 101.013 31.0437 101.091 30.815 101.091ZM34.714 105.406V110H33.5407V102.364H34.6742V103.557H34.7736C34.9526 103.169 35.2244 102.857 35.589 102.622C35.9535 102.384 36.4242 102.264 37.0009 102.264C37.5179 102.264 37.9703 102.37 38.3581 102.582C38.7459 102.791 39.0475 103.109 39.263 103.537C39.4784 103.961 39.5861 104.498 39.5861 105.148V110H38.4128V105.227C38.4128 104.627 38.257 104.16 37.9455 103.825C37.6339 103.487 37.2064 103.318 36.6628 103.318C36.2883 103.318 35.9535 103.399 35.6586 103.562C35.3669 103.724 35.1365 103.961 34.9675 104.273C34.7985 104.584 34.714 104.962 34.714 105.406ZM44.6136 110.159C43.9773 110.159 43.4155 109.998 42.9283 109.677C42.4411 109.352 42.0599 108.895 41.7848 108.305C41.5097 107.711 41.3722 107.01 41.3722 106.202C41.3722 105.4 41.5097 104.704 41.7848 104.114C42.0599 103.524 42.4427 103.068 42.9332 102.746C43.4238 102.425 43.9905 102.264 44.6335 102.264C45.1307 102.264 45.5234 102.347 45.8118 102.513C46.1035 102.675 46.3255 102.861 46.478 103.07C46.6338 103.275 46.7547 103.444 46.8409 103.577H46.9403V99.8182H48.1136V110H46.9801V108.827H46.8409C46.7547 108.966 46.6321 109.142 46.473 109.354C46.3139 109.562 46.0869 109.75 45.7919 109.915C45.4969 110.078 45.1042 110.159 44.6136 110.159ZM44.7727 109.105C45.2434 109.105 45.6411 108.982 45.9659 108.737C46.2907 108.489 46.5376 108.146 46.7067 107.708C46.8757 107.267 46.9602 106.759 46.9602 106.182C46.9602 105.612 46.8774 105.113 46.7116 104.685C46.5459 104.254 46.3007 103.92 45.9759 103.681C45.651 103.439 45.25 103.318 44.7727 103.318C44.2756 103.318 43.8613 103.446 43.5298 103.701C43.2017 103.953 42.9548 104.296 42.7891 104.73C42.6267 105.161 42.5455 105.645 42.5455 106.182C42.5455 106.725 42.6283 107.219 42.794 107.663C42.9631 108.104 43.2116 108.455 43.5398 108.717C43.8712 108.976 44.2822 109.105 44.7727 109.105ZM53.6271 110.159C52.8913 110.159 52.2566 109.997 51.723 109.672C51.1927 109.344 50.7834 108.886 50.495 108.3C50.21 107.71 50.0675 107.024 50.0675 106.241C50.0675 105.459 50.21 104.77 50.495 104.173C50.7834 103.573 51.1844 103.106 51.6982 102.771C52.2152 102.433 52.8184 102.264 53.5078 102.264C53.9055 102.264 54.2983 102.33 54.6861 102.463C55.0739 102.596 55.4268 102.811 55.745 103.109C56.0632 103.404 56.3168 103.795 56.5057 104.283C56.6946 104.77 56.7891 105.37 56.7891 106.082V106.58H50.9027V105.565H55.5959C55.5959 105.134 55.5097 104.75 55.3374 104.412C55.1683 104.074 54.9264 103.807 54.6115 103.612C54.3 103.416 53.9321 103.318 53.5078 103.318C53.0405 103.318 52.6361 103.434 52.2947 103.666C51.9567 103.895 51.6965 104.193 51.5142 104.561C51.3319 104.929 51.2408 105.323 51.2408 105.744V106.42C51.2408 106.997 51.3402 107.486 51.5391 107.887C51.7412 108.285 52.0213 108.588 52.3793 108.797C52.7372 109.002 53.1532 109.105 53.6271 109.105C53.9354 109.105 54.2138 109.062 54.4624 108.976C54.7143 108.886 54.9313 108.754 55.1136 108.578C55.2959 108.399 55.4368 108.177 55.5362 107.912L56.6697 108.23C56.5504 108.615 56.3499 108.953 56.0682 109.244C55.7865 109.533 55.4384 109.758 55.0241 109.92C54.6098 110.08 54.1442 110.159 53.6271 110.159ZM59.2438 102.364L61.0733 105.486L62.9029 102.364H64.2551L61.7892 106.182L64.2551 110H62.9029L61.0733 107.037L59.2438 110H57.8915L60.3176 106.182L57.8915 102.364H59.2438Z" fill="black"/>
<path d="M95 107L90 104.113V109.887L95 107ZM66 107.5H90.5V106.5H66V107.5Z" fill="#FF4D4D"/>
<path d="M14.6701 47.1591C13.9343 47.1591 13.2996 46.9967 12.766 46.6719C12.2357 46.3438 11.8263 45.8864 11.538 45.2997C11.253 44.7098 11.1104 44.0237 11.1104 43.2415C11.1104 42.4593 11.253 41.7699 11.538 41.1733C11.8263 40.5734 12.2274 40.1061 12.7411 39.7713C13.2582 39.4332 13.8614 39.2642 14.5508 39.2642C14.9485 39.2642 15.3413 39.3305 15.729 39.4631C16.1168 39.5956 16.4698 39.8111 16.788 40.1094C17.1062 40.4044 17.3597 40.7955 17.5487 41.2827C17.7376 41.7699 17.832 42.3698 17.832 43.0824V43.5795H11.9457V42.5653H16.6388C16.6388 42.1345 16.5527 41.75 16.3803 41.4119C16.2113 41.0739 15.9693 40.8071 15.6545 40.6115C15.3429 40.416 14.975 40.3182 14.5508 40.3182C14.0835 40.3182 13.6791 40.4342 13.3377 40.6662C12.9996 40.8949 12.7395 41.1932 12.5572 41.5611C12.3749 41.929 12.2837 42.3234 12.2837 42.7443V43.4205C12.2837 43.9972 12.3832 44.486 12.582 44.8871C12.7842 45.2848 13.0643 45.5881 13.4222 45.7969C13.7802 46.0024 14.1961 46.1051 14.6701 46.1051C14.9783 46.1051 15.2567 46.062 15.5053 45.9759C15.7572 45.8864 15.9743 45.7538 16.1566 45.5781C16.3389 45.3991 16.4798 45.1771 16.5792 44.9119L17.7127 45.2301C17.5934 45.6146 17.3929 45.9527 17.1112 46.2443C16.8294 46.5327 16.4814 46.758 16.0671 46.9205C15.6528 47.0795 15.1871 47.1591 14.6701 47.1591ZM20.7901 36.8182V47H19.6168V36.8182H20.7901ZM26.1408 47.1591C25.405 47.1591 24.7703 46.9967 24.2367 46.6719C23.7064 46.3438 23.2971 45.8864 23.0087 45.2997C22.7237 44.7098 22.5811 44.0237 22.5811 43.2415C22.5811 42.4593 22.7237 41.7699 23.0087 41.1733C23.2971 40.5734 23.6981 40.1061 24.2118 39.7713C24.7289 39.4332 25.3321 39.2642 26.0215 39.2642C26.4192 39.2642 26.812 39.3305 27.1998 39.4631C27.5875 39.5956 27.9405 39.8111 28.2587 40.1094C28.5769 40.4044 28.8304 40.7955 29.0194 41.2827C29.2083 41.7699 29.3027 42.3698 29.3027 43.0824V43.5795H23.4164V42.5653H28.1096C28.1096 42.1345 28.0234 41.75 27.851 41.4119C27.682 41.0739 27.44 40.8071 27.1252 40.6115C26.8136 40.416 26.4457 40.3182 26.0215 40.3182C25.5542 40.3182 25.1498 40.4342 24.8084 40.6662C24.4703 40.8949 24.2102 41.1932 24.0279 41.5611C23.8456 41.929 23.7544 42.3234 23.7544 42.7443V43.4205C23.7544 43.9972 23.8539 44.486 24.0527 44.8871C24.2549 45.2848 24.535 45.5881 24.8929 45.7969C25.2509 46.0024 25.6668 46.1051 26.1408 46.1051C26.449 46.1051 26.7275 46.062 26.976 45.9759C27.2279 45.8864 27.445 45.7538 27.6273 45.5781C27.8096 45.3991 27.9505 45.1771 28.0499 44.9119L29.1834 45.2301C29.0641 45.6146 28.8636 45.9527 28.5819 46.2443C28.3001 46.5327 27.9521 46.758 27.5378 46.9205C27.1235 47.0795 26.6578 47.1591 26.1408 47.1591ZM31.0875 47V39.3636H32.2211V40.5568H32.3205C32.4796 40.1491 32.7364 39.8326 33.0911 39.6072C33.4457 39.3786 33.8716 39.2642 34.3688 39.2642C34.8726 39.2642 35.2918 39.3786 35.6266 39.6072C35.9647 39.8326 36.2282 40.1491 36.4171 40.5568H36.4966C36.6922 40.1624 36.9855 39.8492 37.3766 39.6172C37.7677 39.3819 38.2367 39.2642 38.7836 39.2642C39.4663 39.2642 40.0248 39.478 40.459 39.9055C40.8932 40.3298 41.1103 40.991 41.1103 41.8892V47H39.937V41.8892C39.937 41.3258 39.7828 40.9231 39.4746 40.6811C39.1664 40.4392 38.8034 40.3182 38.3858 40.3182C37.8489 40.3182 37.4329 40.4806 37.138 40.8054C36.843 41.1269 36.6955 41.5346 36.6955 42.0284V47H35.5023V41.7699C35.5023 41.3357 35.3614 40.986 35.0797 40.7209C34.798 40.4524 34.4351 40.3182 33.9909 40.3182C33.686 40.3182 33.401 40.3994 33.1358 40.5618C32.874 40.7242 32.6619 40.9496 32.4995 41.2379C32.3404 41.523 32.2608 41.8527 32.2608 42.2273V47H31.0875ZM46.4572 47.1591C45.7214 47.1591 45.0867 46.9967 44.5531 46.6719C44.0228 46.3438 43.6135 45.8864 43.3251 45.2997C43.0401 44.7098 42.8975 44.0237 42.8975 43.2415C42.8975 42.4593 43.0401 41.7699 43.3251 41.1733C43.6135 40.5734 44.0145 40.1061 44.5282 39.7713C45.0453 39.4332 45.6485 39.2642 46.3379 39.2642C46.7356 39.2642 47.1284 39.3305 47.5162 39.4631C47.9039 39.5956 48.2569 39.8111 48.5751 40.1094C48.8933 40.4044 49.1468 40.7955 49.3358 41.2827C49.5247 41.7699 49.6191 42.3698 49.6191 43.0824V43.5795H43.7328V42.5653H48.426C48.426 42.1345 48.3398 41.75 48.1674 41.4119C47.9984 41.0739 47.7565 40.8071 47.4416 40.6115C47.13 40.416 46.7621 40.3182 46.3379 40.3182C45.8706 40.3182 45.4662 40.4342 45.1248 40.6662C44.7868 40.8949 44.5266 41.1932 44.3443 41.5611C44.162 41.929 44.0708 42.3234 44.0708 42.7443V43.4205C44.0708 43.9972 44.1703 44.486 44.3691 44.8871C44.5713 45.2848 44.8514 45.5881 45.2093 45.7969C45.5673 46.0024 45.9833 46.1051 46.4572 46.1051C46.7654 46.1051 47.0439 46.062 47.2924 45.9759C47.5443 45.8864 47.7614 45.7538 47.9437 45.5781C48.126 45.3991 48.2669 45.1771 48.3663 44.9119L49.4998 45.2301C49.3805 45.6146 49.18 45.9527 48.8983 46.2443C48.6165 46.5327 48.2685 46.758 47.8542 46.9205C47.4399 47.0795 46.9743 47.1591 46.4572 47.1591ZM52.5772 42.4062V47H51.4039V39.3636H52.5375V40.5568H52.6369C52.8159 40.169 53.0877 39.8575 53.4522 39.6222C53.8168 39.3835 54.2875 39.2642 54.8642 39.2642C55.3812 39.2642 55.8336 39.3703 56.2214 39.5824C56.6092 39.7912 56.9108 40.1094 57.1262 40.5369C57.3417 40.9612 57.4494 41.4981 57.4494 42.1477V47H56.2761V42.2273C56.2761 41.6274 56.1203 41.16 55.8088 40.8253C55.4972 40.4872 55.0697 40.3182 54.5261 40.3182C54.1516 40.3182 53.8168 40.3994 53.5218 40.5618C53.2302 40.7242 52.9998 40.9612 52.8308 41.2727C52.6618 41.5843 52.5772 41.9621 52.5772 42.4062ZM62.9144 39.3636V40.358H58.957V39.3636H62.9144ZM60.1104 37.5341H61.2837V44.8125C61.2837 45.1439 61.3318 45.3925 61.4279 45.5582C61.5273 45.7206 61.6533 45.83 61.8058 45.8864C61.9615 45.9394 62.1256 45.9659 62.2979 45.9659C62.4272 45.9659 62.5333 45.9593 62.6161 45.946C62.699 45.9295 62.7653 45.9162 62.815 45.9062L63.0536 46.9602C62.9741 46.9901 62.863 47.0199 62.7205 47.0497C62.578 47.0829 62.3974 47.0994 62.1786 47.0994C61.8472 47.0994 61.5224 47.0282 61.2042 46.8857C60.8893 46.7431 60.6275 46.526 60.4187 46.2344C60.2132 45.9427 60.1104 45.5748 60.1104 45.1307V37.5341Z" fill="black"/>
<path d="M95 44L90 41.1132V46.8868L95 44ZM66 44.5H90.5V43.5H66V44.5Z" fill="#FF4D4D"/>
<path d="M90.3912 19.8636V9.36364H91.5248V10.5767H91.664C91.7501 10.4441 91.8695 10.2751 92.0219 10.0696C92.1777 9.8608 92.3998 9.67519 92.6881 9.51278C92.9798 9.34706 93.3742 9.2642 93.8714 9.2642C94.5144 9.2642 95.0811 9.42495 95.5716 9.74645C96.0622 10.0679 96.445 10.5237 96.7201 11.1136C96.9952 11.7036 97.1327 12.3996 97.1327 13.2017C97.1327 14.0104 96.9952 14.7114 96.7201 15.3047C96.445 15.8946 96.0638 16.352 95.5766 16.6768C95.0894 16.9983 94.5276 17.1591 93.8912 17.1591C93.4007 17.1591 93.008 17.0779 92.713 16.9155C92.418 16.7498 92.191 16.5625 92.0319 16.3537C91.8728 16.1416 91.7501 15.9659 91.664 15.8267H91.5645V19.8636H90.3912ZM91.5447 13.1818C91.5447 13.7585 91.6292 14.2673 91.7982 14.7081C91.9672 15.1456 92.2142 15.4886 92.539 15.7372C92.8638 15.9825 93.2615 16.1051 93.7322 16.1051C94.2227 16.1051 94.632 15.9759 94.9601 15.7173C95.2916 15.4555 95.5402 15.1042 95.7059 14.6634C95.8749 14.2192 95.9594 13.7254 95.9594 13.1818C95.9594 12.6449 95.8766 12.161 95.7108 11.7301C95.5484 11.2959 95.3015 10.9529 94.9701 10.701C94.642 10.4458 94.2293 10.3182 93.7322 10.3182C93.2549 10.3182 92.8538 10.4392 92.529 10.6811C92.2042 10.9197 91.959 11.2545 91.7932 11.6854C91.6275 12.1129 91.5447 12.6117 91.5447 13.1818ZM101.17 17.179C100.686 17.179 100.247 17.0878 99.8522 16.9055C99.4578 16.7199 99.1446 16.4531 98.9126 16.1051C98.6805 15.7538 98.5645 15.3295 98.5645 14.8324C98.5645 14.3949 98.6507 14.0402 98.8231 13.7685C98.9954 13.4934 99.2258 13.2779 99.5141 13.1222C99.8025 12.9664 100.121 12.8504 100.469 12.7741C100.82 12.6946 101.173 12.6316 101.528 12.5852C101.992 12.5256 102.368 12.4808 102.656 12.451C102.948 12.4179 103.16 12.3632 103.293 12.2869C103.428 12.2107 103.496 12.0781 103.496 11.8892V11.8494C103.496 11.3589 103.362 10.9777 103.094 10.706C102.829 10.4342 102.426 10.2983 101.886 10.2983C101.325 10.2983 100.886 10.4209 100.568 10.6662C100.25 10.9115 100.026 11.1733 99.8969 11.4517L98.7833 11.054C98.9822 10.59 99.2473 10.2287 99.5787 9.97017C99.9135 9.70833 100.278 9.52604 100.672 9.4233C101.07 9.31723 101.461 9.2642 101.846 9.2642C102.091 9.2642 102.373 9.29403 102.691 9.35369C103.012 9.41004 103.322 9.5277 103.621 9.70668C103.922 9.88565 104.172 10.1558 104.371 10.517C104.57 10.8783 104.67 11.3622 104.67 11.9688V17H103.496V15.9659H103.437C103.357 16.1316 103.225 16.3089 103.039 16.4979C102.853 16.6868 102.606 16.8475 102.298 16.9801C101.99 17.1127 101.614 17.179 101.17 17.179ZM101.349 16.125C101.813 16.125 102.204 16.0339 102.522 15.8516C102.843 15.6693 103.085 15.4339 103.248 15.1456C103.414 14.8572 103.496 14.554 103.496 14.2358V13.1619C103.447 13.2216 103.337 13.2763 103.168 13.326C103.003 13.3724 102.81 13.4138 102.592 13.4503C102.376 13.4834 102.166 13.5133 101.96 13.5398C101.758 13.563 101.594 13.5829 101.468 13.5994C101.163 13.6392 100.878 13.7038 100.613 13.7933C100.351 13.8795 100.139 14.0104 99.9765 14.1861C99.8174 14.3584 99.7378 14.5937 99.7378 14.892C99.7378 15.2997 99.8886 15.608 100.19 15.8168C100.495 16.0223 100.881 16.125 101.349 16.125ZM107.984 12.4062V17H106.811V9.36364H107.945V10.5568H108.044C108.223 10.169 108.495 9.85748 108.859 9.62216C109.224 9.38352 109.695 9.2642 110.271 9.2642C110.788 9.2642 111.241 9.37027 111.629 9.58239C112.016 9.79119 112.318 10.1094 112.533 10.5369C112.749 10.9612 112.857 11.4981 112.857 12.1477V17H111.683V12.2273C111.683 11.6274 111.528 11.16 111.216 10.8253C110.904 10.4872 110.477 10.3182 109.933 10.3182C109.559 10.3182 109.224 10.3994 108.929 10.5618C108.637 10.7242 108.407 10.9612 108.238 11.2727C108.069 11.5843 107.984 11.9621 107.984 12.4062ZM115.001 9.36364H116.174V17.5568C116.174 18.0275 116.093 18.4351 115.93 18.7798C115.771 19.1245 115.529 19.3913 115.204 19.5803C114.883 19.7692 114.477 19.8636 113.986 19.8636C113.947 19.8636 113.907 19.8636 113.867 19.8636C113.827 19.8636 113.788 19.8636 113.748 19.8636V18.7699C113.788 18.7699 113.824 18.7699 113.857 18.7699C113.89 18.7699 113.927 18.7699 113.967 18.7699C114.324 18.7699 114.586 18.6638 114.752 18.4517C114.918 18.2429 115.001 17.9446 115.001 17.5568V9.36364ZM115.577 8.09091C115.349 8.09091 115.151 8.01302 114.986 7.85724C114.823 7.70147 114.742 7.5142 114.742 7.29545C114.742 7.0767 114.823 6.88944 114.986 6.73366C115.151 6.57789 115.349 6.5 115.577 6.5C115.806 6.5 116.002 6.57789 116.164 6.73366C116.33 6.88944 116.413 7.0767 116.413 7.29545C116.413 7.5142 116.33 7.70147 116.164 7.85724C116.002 8.01302 115.806 8.09091 115.577 8.09091ZM120.57 17.179C120.086 17.179 119.647 17.0878 119.253 16.9055C118.858 16.7199 118.545 16.4531 118.313 16.1051C118.081 15.7538 117.965 15.3295 117.965 14.8324C117.965 14.3949 118.051 14.0402 118.223 13.7685C118.396 13.4934 118.626 13.2779 118.915 13.1222C119.203 12.9664 119.521 12.8504 119.869 12.7741C120.22 12.6946 120.573 12.6316 120.928 12.5852C121.392 12.5256 121.768 12.4808 122.057 12.451C122.348 12.4179 122.56 12.3632 122.693 12.2869C122.829 12.2107 122.897 12.0781 122.897 11.8892V11.8494C122.897 11.3589 122.763 10.9777 122.494 10.706C122.229 10.4342 121.826 10.2983 121.286 10.2983C120.726 10.2983 120.287 10.4209 119.968 10.6662C119.65 10.9115 119.427 11.1733 119.297 11.4517L118.184 11.054C118.383 10.59 118.648 10.2287 118.979 9.97017C119.314 9.70833 119.678 9.52604 120.073 9.4233C120.471 9.31723 120.862 9.2642 121.246 9.2642C121.491 9.2642 121.773 9.29403 122.091 9.35369C122.413 9.41004 122.723 9.5277 123.021 9.70668C123.323 9.88565 123.573 10.1558 123.772 10.517C123.971 10.8783 124.07 11.3622 124.07 11.9688V17H122.897V15.9659H122.837C122.758 16.1316 122.625 16.3089 122.439 16.4979C122.254 16.6868 122.007 16.8475 121.699 16.9801C121.39 17.1127 121.014 17.179 120.57 17.179ZM120.749 16.125C121.213 16.125 121.604 16.0339 121.922 15.8516C122.244 15.6693 122.486 15.4339 122.648 15.1456C122.814 14.8572 122.897 14.554 122.897 14.2358V13.1619C122.847 13.2216 122.738 13.2763 122.569 13.326C122.403 13.3724 122.211 13.4138 121.992 13.4503C121.776 13.4834 121.566 13.5133 121.361 13.5398C121.158 13.563 120.994 13.5829 120.868 13.5994C120.563 13.6392 120.278 13.7038 120.013 13.7933C119.751 13.8795 119.539 14.0104 119.377 14.1861C119.218 14.3584 119.138 14.5937 119.138 14.892C119.138 15.2997 119.289 15.608 119.591 15.8168C119.896 16.0223 120.282 16.125 120.749 16.125ZM127.385 12.4062V17H126.212V9.36364H127.345V10.5568H127.445C127.623 10.169 127.895 9.85748 128.26 9.62216C128.624 9.38352 129.095 9.2642 129.672 9.2642C130.189 9.2642 130.641 9.37027 131.029 9.58239C131.417 9.79119 131.718 10.1094 131.934 10.5369C132.149 10.9612 132.257 11.4981 132.257 12.1477V17H131.084V12.2273C131.084 11.6274 130.928 11.16 130.616 10.8253C130.305 10.4872 129.877 10.3182 129.334 10.3182C128.959 10.3182 128.624 10.3994 128.329 10.5618C128.038 10.7242 127.807 10.9612 127.638 11.2727C127.469 11.5843 127.385 11.9621 127.385 12.4062ZM137.483 20.0227C136.917 20.0227 136.429 19.9498 136.022 19.804C135.614 19.6615 135.274 19.4725 135.003 19.2372C134.734 19.0052 134.52 18.7566 134.361 18.4915L135.296 17.8352C135.402 17.9744 135.536 18.1335 135.699 18.3125C135.861 18.4948 136.083 18.6522 136.365 18.7848C136.65 18.9207 137.023 18.9886 137.483 18.9886C138.1 18.9886 138.609 18.8395 139.01 18.5412C139.411 18.2429 139.611 17.7756 139.611 17.1392V15.5881H139.512C139.426 15.7273 139.303 15.8996 139.144 16.1051C138.988 16.3073 138.763 16.4879 138.468 16.647C138.176 16.8028 137.782 16.8807 137.285 16.8807C136.668 16.8807 136.115 16.7348 135.624 16.4432C135.137 16.1515 134.751 15.7273 134.466 15.1705C134.184 14.6136 134.043 13.9375 134.043 13.142C134.043 12.3598 134.181 11.6787 134.456 11.0987C134.731 10.5154 135.114 10.0646 135.604 9.74645C136.095 9.42495 136.661 9.2642 137.304 9.2642C137.802 9.2642 138.196 9.34706 138.488 9.51278C138.783 9.67519 139.008 9.8608 139.164 10.0696C139.323 10.2751 139.446 10.4441 139.532 10.5767H139.651V9.36364H140.785V17.2188C140.785 17.875 140.635 18.4086 140.337 18.8196C140.042 19.2339 139.644 19.5372 139.144 19.7294C138.647 19.925 138.093 20.0227 137.483 20.0227ZM137.444 15.8267C137.914 15.8267 138.312 15.719 138.637 15.5036C138.962 15.2881 139.209 14.9782 139.378 14.5739C139.547 14.1695 139.631 13.6856 139.631 13.1222C139.631 12.572 139.548 12.0864 139.383 11.6655C139.217 11.2446 138.972 10.9148 138.647 10.6761C138.322 10.4375 137.921 10.3182 137.444 10.3182C136.946 10.3182 136.532 10.4441 136.201 10.696C135.873 10.9479 135.626 11.286 135.46 11.7102C135.298 12.1345 135.216 12.6051 135.216 13.1222C135.216 13.6525 135.299 14.1214 135.465 14.5291C135.634 14.9335 135.883 15.2517 136.211 15.4837C136.542 15.7124 136.953 15.8267 137.444 15.8267ZM149.753 17.1591C149.117 17.1591 148.555 16.9983 148.068 16.6768C147.581 16.352 147.2 15.8946 146.924 15.3047C146.649 14.7114 146.512 14.0104 146.512 13.2017C146.512 12.3996 146.649 11.7036 146.924 11.1136C147.2 10.5237 147.582 10.0679 148.073 9.74645C148.563 9.42495 149.13 9.2642 149.773 9.2642C150.27 9.2642 150.663 9.34706 150.951 9.51278C151.243 9.67519 151.465 9.8608 151.618 10.0696C151.773 10.2751 151.894 10.4441 151.981 10.5767H152.08V6.81818H153.253V17H152.12V15.8267H151.981C151.894 15.9659 151.772 16.1416 151.613 16.3537C151.454 16.5625 151.227 16.7498 150.932 16.9155C150.637 17.0779 150.244 17.1591 149.753 17.1591ZM149.912 16.1051C150.383 16.1051 150.781 15.9825 151.106 15.7372C151.43 15.4886 151.677 15.1456 151.846 14.7081C152.015 14.2673 152.1 13.7585 152.1 13.1818C152.1 12.6117 152.017 12.1129 151.851 11.6854C151.686 11.2545 151.44 10.9197 151.116 10.6811C150.791 10.4392 150.39 10.3182 149.912 10.3182C149.415 10.3182 149.001 10.4458 148.669 10.701C148.341 10.9529 148.094 11.2959 147.929 11.7301C147.766 12.161 147.685 12.6449 147.685 13.1818C147.685 13.7254 147.768 14.2192 147.934 14.6634C148.103 15.1042 148.351 15.4555 148.679 15.7173C149.011 15.9759 149.422 16.1051 149.912 16.1051ZM157.812 17.179C157.328 17.179 156.889 17.0878 156.495 16.9055C156.1 16.7199 155.787 16.4531 155.555 16.1051C155.323 15.7538 155.207 15.3295 155.207 14.8324C155.207 14.3949 155.293 14.0402 155.466 13.7685C155.638 13.4934 155.868 13.2779 156.157 13.1222C156.445 12.9664 156.763 12.8504 157.111 12.7741C157.463 12.6946 157.816 12.6316 158.17 12.5852C158.634 12.5256 159.01 12.4808 159.299 12.451C159.59 12.4179 159.803 12.3632 159.935 12.2869C160.071 12.2107 160.139 12.0781 160.139 11.8892V11.8494C160.139 11.3589 160.005 10.9777 159.736 10.706C159.471 10.4342 159.068 10.2983 158.528 10.2983C157.968 10.2983 157.529 10.4209 157.211 10.6662C156.892 10.9115 156.669 11.1733 156.54 11.4517L155.426 11.054C155.625 10.59 155.89 10.2287 156.221 9.97017C156.556 9.70833 156.921 9.52604 157.315 9.4233C157.713 9.31723 158.104 9.2642 158.488 9.2642C158.734 9.2642 159.015 9.29403 159.334 9.35369C159.655 9.41004 159.965 9.5277 160.263 9.70668C160.565 9.88565 160.815 10.1558 161.014 10.517C161.213 10.8783 161.312 11.3622 161.312 11.9688V17H160.139V15.9659H160.079C160 16.1316 159.867 16.3089 159.682 16.4979C159.496 16.6868 159.249 16.8475 158.941 16.9801C158.633 17.1127 158.256 17.179 157.812 17.179ZM157.991 16.125C158.455 16.125 158.846 16.0339 159.165 15.8516C159.486 15.6693 159.728 15.4339 159.89 15.1456C160.056 14.8572 160.139 14.554 160.139 14.2358V13.1619C160.089 13.2216 159.98 13.2763 159.811 13.326C159.645 13.3724 159.453 13.4138 159.234 13.4503C159.019 13.4834 158.808 13.5133 158.603 13.5398C158.401 13.563 158.236 13.5829 158.111 13.5994C157.806 13.6392 157.521 13.7038 157.255 13.7933C156.994 13.8795 156.781 14.0104 156.619 14.1861C156.46 14.3584 156.38 14.5937 156.38 14.892C156.38 15.2997 156.531 15.608 156.833 15.8168C157.138 16.0223 157.524 16.125 157.991 16.125ZM163.454 17V9.36364H164.587V10.517H164.667C164.806 10.1392 165.058 9.83262 165.422 9.5973C165.787 9.36198 166.198 9.24432 166.655 9.24432C166.742 9.24432 166.849 9.24597 166.979 9.24929C167.108 9.2526 167.206 9.25758 167.272 9.2642V10.4574C167.232 10.4474 167.141 10.4325 166.998 10.4126C166.859 10.3894 166.712 10.3778 166.556 10.3778C166.185 10.3778 165.853 10.4557 165.562 10.6115C165.273 10.764 165.045 10.9761 164.876 11.2479C164.71 11.5163 164.627 11.8229 164.627 12.1676V17H163.454ZM168.663 17V9.36364H169.836V17H168.663ZM169.259 8.09091C169.031 8.09091 168.833 8.01302 168.668 7.85724C168.505 7.70147 168.424 7.5142 168.424 7.29545C168.424 7.0767 168.505 6.88944 168.668 6.73366C168.833 6.57789 169.031 6.5 169.259 6.5C169.488 6.5 169.684 6.57789 169.846 6.73366C170.012 6.88944 170.095 7.0767 170.095 7.29545C170.095 7.5142 170.012 7.70147 169.846 7.85724C169.684 8.01302 169.488 8.09091 169.259 8.09091ZM178.17 17.179C177.686 17.179 177.247 17.0878 176.852 16.9055C176.458 16.7199 176.145 16.4531 175.913 16.1051C175.681 15.7538 175.565 15.3295 175.565 14.8324C175.565 14.3949 175.651 14.0402 175.823 13.7685C175.995 13.4934 176.226 13.2779 176.514 13.1222C176.802 12.9664 177.121 12.8504 177.469 12.7741C177.82 12.6946 178.173 12.6316 178.528 12.5852C178.992 12.5256 179.368 12.4808 179.656 12.451C179.948 12.4179 180.16 12.3632 180.293 12.2869C180.428 12.2107 180.496 12.0781 180.496 11.8892V11.8494C180.496 11.3589 180.362 10.9777 180.094 10.706C179.829 10.4342 179.426 10.2983 178.886 10.2983C178.325 10.2983 177.886 10.4209 177.568 10.6662C177.25 10.9115 177.026 11.1733 176.897 11.4517L175.783 11.054C175.982 10.59 176.247 10.2287 176.579 9.97017C176.914 9.70833 177.278 9.52604 177.672 9.4233C178.07 9.31723 178.461 9.2642 178.846 9.2642C179.091 9.2642 179.373 9.29403 179.691 9.35369C180.012 9.41004 180.322 9.5277 180.621 9.70668C180.922 9.88565 181.172 10.1558 181.371 10.517C181.57 10.8783 181.67 11.3622 181.67 11.9688V17H180.496V15.9659H180.437C180.357 16.1316 180.225 16.3089 180.039 16.4979C179.853 16.6868 179.606 16.8475 179.298 16.9801C178.99 17.1127 178.614 17.179 178.17 17.179ZM178.349 16.125C178.813 16.125 179.204 16.0339 179.522 15.8516C179.843 15.6693 180.085 15.4339 180.248 15.1456C180.414 14.8572 180.496 14.554 180.496 14.2358V13.1619C180.447 13.2216 180.337 13.2763 180.168 13.326C180.003 13.3724 179.81 13.4138 179.592 13.4503C179.376 13.4834 179.166 13.5133 178.96 13.5398C178.758 13.563 178.594 13.5829 178.468 13.5994C178.163 13.6392 177.878 13.7038 177.613 13.7933C177.351 13.8795 177.139 14.0104 176.976 14.1861C176.817 14.3584 176.738 14.5937 176.738 14.892C176.738 15.2997 176.889 15.608 177.19 15.8168C177.495 16.0223 177.881 16.125 178.349 16.125ZM183.811 17V9.36364H184.945V10.517H185.024C185.163 10.1392 185.415 9.83262 185.78 9.5973C186.145 9.36198 186.555 9.24432 187.013 9.24432C187.099 9.24432 187.207 9.24597 187.336 9.24929C187.465 9.2526 187.563 9.25758 187.629 9.2642V10.4574C187.59 10.4474 187.498 10.4325 187.356 10.4126C187.217 10.3894 187.069 10.3778 186.913 10.3778C186.542 10.3778 186.211 10.4557 185.919 10.6115C185.631 10.764 185.402 10.9761 185.233 11.2479C185.067 11.5163 184.984 11.8229 184.984 12.1676V17H183.811ZM189.02 17V9.36364H190.154V10.517H190.233C190.372 10.1392 190.624 9.83262 190.989 9.5973C191.353 9.36198 191.764 9.24432 192.222 9.24432C192.308 9.24432 192.416 9.24597 192.545 9.24929C192.674 9.2526 192.772 9.25758 192.838 9.2642V10.4574C192.799 10.4474 192.707 10.4325 192.565 10.4126C192.426 10.3894 192.278 10.3778 192.122 10.3778C191.751 10.3778 191.42 10.4557 191.128 10.6115C190.84 10.764 190.611 10.9761 190.442 11.2479C190.276 11.5163 190.193 11.8229 190.193 12.1676V17H189.02ZM196.476 17.179C195.992 17.179 195.553 17.0878 195.159 16.9055C194.764 16.7199 194.451 16.4531 194.219 16.1051C193.987 15.7538 193.871 15.3295 193.871 14.8324C193.871 14.3949 193.957 14.0402 194.13 13.7685C194.302 13.4934 194.532 13.2779 194.821 13.1222C195.109 12.9664 195.427 12.8504 195.775 12.7741C196.127 12.6946 196.48 12.6316 196.834 12.5852C197.298 12.5256 197.674 12.4808 197.963 12.451C198.254 12.4179 198.467 12.3632 198.599 12.2869C198.735 12.2107 198.803 12.0781 198.803 11.8892V11.8494C198.803 11.3589 198.669 10.9777 198.4 10.706C198.135 10.4342 197.732 10.2983 197.192 10.2983C196.632 10.2983 196.193 10.4209 195.875 10.6662C195.557 10.9115 195.333 11.1733 195.204 11.4517L194.09 11.054C194.289 10.59 194.554 10.2287 194.885 9.97017C195.22 9.70833 195.585 9.52604 195.979 9.4233C196.377 9.31723 196.768 9.2642 197.152 9.2642C197.398 9.2642 197.679 9.29403 197.998 9.35369C198.319 9.41004 198.629 9.5277 198.927 9.70668C199.229 9.88565 199.479 10.1558 199.678 10.517C199.877 10.8783 199.976 11.3622 199.976 11.9688V17H198.803V15.9659H198.743C198.664 16.1316 198.531 16.3089 198.346 16.4979C198.16 16.6868 197.913 16.8475 197.605 16.9801C197.297 17.1127 196.92 17.179 196.476 17.179ZM196.655 16.125C197.119 16.125 197.51 16.0339 197.829 15.8516C198.15 15.6693 198.392 15.4339 198.554 15.1456C198.72 14.8572 198.803 14.554 198.803 14.2358V13.1619C198.753 13.2216 198.644 13.2763 198.475 13.326C198.309 13.3724 198.117 13.4138 197.898 13.4503C197.683 13.4834 197.472 13.5133 197.267 13.5398C197.065 13.563 196.901 13.5829 196.775 13.5994C196.47 13.6392 196.185 13.7038 195.919 13.7933C195.658 13.8795 195.446 14.0104 195.283 14.1861C195.124 14.3584 195.044 14.5937 195.044 14.892C195.044 15.2997 195.195 15.608 195.497 15.8168C195.802 16.0223 196.188 16.125 196.655 16.125ZM202.6 19.8636C202.401 19.8636 202.224 19.8471 202.068 19.8139C201.912 19.7841 201.805 19.7543 201.745 19.7244L202.043 18.6903C202.328 18.7633 202.58 18.7898 202.799 18.7699C203.018 18.75 203.212 18.6522 203.381 18.4766C203.553 18.3042 203.71 18.0241 203.853 17.6364L204.072 17.0398L201.248 9.36364H202.521L204.628 15.4489H204.708L206.816 9.36364H208.089L204.847 18.1136C204.701 18.508 204.521 18.8345 204.305 19.093C204.09 19.3549 203.84 19.5488 203.555 19.6747C203.273 19.8007 202.955 19.8636 202.6 19.8636ZM213.575 17V9.36364H214.748V17H213.575ZM214.171 8.09091C213.943 8.09091 213.746 8.01302 213.58 7.85724C213.417 7.70147 213.336 7.5142 213.336 7.29545C213.336 7.0767 213.417 6.88944 213.58 6.73366C213.746 6.57789 213.943 6.5 214.171 6.5C214.4 6.5 214.596 6.57789 214.758 6.73366C214.924 6.88944 215.007 7.0767 215.007 7.29545C215.007 7.5142 214.924 7.70147 214.758 7.85724C214.596 8.01302 214.4 8.09091 214.171 8.09091ZM218.07 12.4062V17H216.897V9.36364H218.031V10.5568H218.13C218.309 10.169 218.581 9.85748 218.945 9.62216C219.31 9.38352 219.781 9.2642 220.357 9.2642C220.874 9.2642 221.327 9.37027 221.715 9.58239C222.102 9.79119 222.404 10.1094 222.619 10.5369C222.835 10.9612 222.943 11.4981 222.943 12.1477V17H221.769V12.2273C221.769 11.6274 221.613 11.16 221.302 10.8253C220.99 10.4872 220.563 10.3182 220.019 10.3182C219.645 10.3182 219.31 10.3994 219.015 10.5618C218.723 10.7242 218.493 10.9612 218.324 11.2727C218.155 11.5843 218.07 11.9621 218.07 12.4062ZM225.087 17V9.36364H226.26V17H225.087ZM225.683 8.09091C225.454 8.09091 225.257 8.01302 225.092 7.85724C224.929 7.70147 224.848 7.5142 224.848 7.29545C224.848 7.0767 224.929 6.88944 225.092 6.73366C225.257 6.57789 225.454 6.5 225.683 6.5C225.912 6.5 226.107 6.57789 226.27 6.73366C226.436 6.88944 226.518 7.0767 226.518 7.29545C226.518 7.5142 226.436 7.70147 226.27 7.85724C226.107 8.01302 225.912 8.09091 225.683 8.09091ZM234.593 17.179C234.11 17.179 233.67 17.0878 233.276 16.9055C232.882 16.7199 232.568 16.4531 232.336 16.1051C232.104 15.7538 231.988 15.3295 231.988 14.8324C231.988 14.3949 232.075 14.0402 232.247 13.7685C232.419 13.4934 232.65 13.2779 232.938 13.1222C233.226 12.9664 233.544 12.8504 233.892 12.7741C234.244 12.6946 234.597 12.6316 234.951 12.5852C235.415 12.5256 235.792 12.4808 236.08 12.451C236.372 12.4179 236.584 12.3632 236.716 12.2869C236.852 12.2107 236.92 12.0781 236.92 11.8892V11.8494C236.92 11.3589 236.786 10.9777 236.517 10.706C236.252 10.4342 235.85 10.2983 235.309 10.2983C234.749 10.2983 234.31 10.4209 233.992 10.6662C233.674 10.9115 233.45 11.1733 233.321 11.4517L232.207 11.054C232.406 10.59 232.671 10.2287 233.003 9.97017C233.337 9.70833 233.702 9.52604 234.096 9.4233C234.494 9.31723 234.885 9.2642 235.27 9.2642C235.515 9.2642 235.797 9.29403 236.115 9.35369C236.436 9.41004 236.746 9.5277 237.044 9.70668C237.346 9.88565 237.596 10.1558 237.795 10.517C237.994 10.8783 238.093 11.3622 238.093 11.9688V17H236.92V15.9659H236.861C236.781 16.1316 236.648 16.3089 236.463 16.4979C236.277 16.6868 236.03 16.8475 235.722 16.9801C235.414 17.1127 235.038 17.179 234.593 17.179ZM234.772 16.125C235.236 16.125 235.628 16.0339 235.946 15.8516C236.267 15.6693 236.509 15.4339 236.672 15.1456C236.837 14.8572 236.92 14.554 236.92 14.2358V13.1619C236.87 13.2216 236.761 13.2763 236.592 13.326C236.426 13.3724 236.234 13.4138 236.015 13.4503C235.8 13.4834 235.589 13.5133 235.384 13.5398C235.182 13.563 235.018 13.5829 234.892 13.5994C234.587 13.6392 234.302 13.7038 234.037 13.7933C233.775 13.8795 233.563 14.0104 233.4 14.1861C233.241 14.3584 233.162 14.5937 233.162 14.892C233.162 15.2997 233.312 15.608 233.614 15.8168C233.919 16.0223 234.305 16.125 234.772 16.125ZM243.119 17.1591C242.482 17.1591 241.92 16.9983 241.433 16.6768C240.946 16.352 240.565 15.8946 240.29 15.3047C240.015 14.7114 239.877 14.0104 239.877 13.2017C239.877 12.3996 240.015 11.7036 240.29 11.1136C240.565 10.5237 240.948 10.0679 241.438 9.74645C241.929 9.42495 242.495 9.2642 243.138 9.2642C243.636 9.2642 244.028 9.34706 244.317 9.51278C244.608 9.67519 244.83 9.8608 244.983 10.0696C245.139 10.2751 245.26 10.4441 245.346 10.5767H245.445V6.81818H246.619V17H245.485V15.8267H245.346C245.26 15.9659 245.137 16.1416 244.978 16.3537C244.819 16.5625 244.592 16.7498 244.297 16.9155C244.002 17.0779 243.609 17.1591 243.119 17.1591ZM243.278 16.1051C243.748 16.1051 244.146 15.9825 244.471 15.7372C244.796 15.4886 245.043 15.1456 245.212 14.7081C245.381 14.2673 245.465 13.7585 245.465 13.1818C245.465 12.6117 245.382 12.1129 245.217 11.6854C245.051 11.2545 244.806 10.9197 244.481 10.6811C244.156 10.4392 243.755 10.3182 243.278 10.3182C242.78 10.3182 242.366 10.4458 242.035 10.701C241.707 10.9529 241.46 11.2959 241.294 11.7301C241.132 12.161 241.05 12.6449 241.05 13.1818C241.05 13.7254 241.133 14.2192 241.299 14.6634C241.468 15.1042 241.717 15.4555 242.045 15.7173C242.376 15.9759 242.787 16.1051 243.278 16.1051ZM251.177 17.179C250.694 17.179 250.254 17.0878 249.86 16.9055C249.466 16.7199 249.152 16.4531 248.92 16.1051C248.688 15.7538 248.572 15.3295 248.572 14.8324C248.572 14.3949 248.659 14.0402 248.831 13.7685C249.003 13.4934 249.234 13.2779 249.522 13.1222C249.81 12.9664 250.128 12.8504 250.476 12.7741C250.828 12.6946 251.181 12.6316 251.535 12.5852C251.999 12.5256 252.376 12.4808 252.664 12.451C252.956 12.4179 253.168 12.3632 253.3 12.2869C253.436 12.2107 253.504 12.0781 253.504 11.8892V11.8494C253.504 11.3589 253.37 10.9777 253.101 10.706C252.836 10.4342 252.434 10.2983 251.893 10.2983C251.333 10.2983 250.894 10.4209 250.576 10.6662C250.258 10.9115 250.034 11.1733 249.905 11.4517L248.791 11.054C248.99 10.59 249.255 10.2287 249.587 9.97017C249.921 9.70833 250.286 9.52604 250.68 9.4233C251.078 9.31723 251.469 9.2642 251.854 9.2642C252.099 9.2642 252.381 9.29403 252.699 9.35369C253.02 9.41004 253.33 9.5277 253.628 9.70668C253.93 9.88565 254.18 10.1558 254.379 10.517C254.578 10.8783 254.677 11.3622 254.677 11.9688V17H253.504V15.9659H253.445C253.365 16.1316 253.232 16.3089 253.047 16.4979C252.861 16.6868 252.614 16.8475 252.306 16.9801C251.998 17.1127 251.622 17.179 251.177 17.179ZM251.356 16.125C251.82 16.125 252.212 16.0339 252.53 15.8516C252.851 15.6693 253.093 15.4339 253.256 15.1456C253.421 14.8572 253.504 14.554 253.504 14.2358V13.1619C253.454 13.2216 253.345 13.2763 253.176 13.326C253.01 13.3724 252.818 13.4138 252.599 13.4503C252.384 13.4834 252.173 13.5133 251.968 13.5398C251.766 13.563 251.602 13.5829 251.476 13.5994C251.171 13.6392 250.886 13.7038 250.621 13.7933C250.359 13.8795 250.147 14.0104 249.984 14.1861C249.825 14.3584 249.746 14.5937 249.746 14.892C249.746 15.2997 249.896 15.608 250.198 15.8168C250.503 16.0223 250.889 16.125 251.356 16.125ZM257.992 6.81818V17H256.819V6.81818H257.992ZM262.388 17.179C261.905 17.179 261.465 17.0878 261.071 16.9055C260.677 16.7199 260.363 16.4531 260.131 16.1051C259.899 15.7538 259.783 15.3295 259.783 14.8324C259.783 14.3949 259.869 14.0402 260.042 13.7685C260.214 13.4934 260.445 13.2779 260.733 13.1222C261.021 12.9664 261.339 12.8504 261.687 12.7741C262.039 12.6946 262.392 12.6316 262.746 12.5852C263.21 12.5256 263.587 12.4808 263.875 12.451C264.167 12.4179 264.379 12.3632 264.511 12.2869C264.647 12.2107 264.715 12.0781 264.715 11.8892V11.8494C264.715 11.3589 264.581 10.9777 264.312 10.706C264.047 10.4342 263.645 10.2983 263.104 10.2983C262.544 10.2983 262.105 10.4209 261.787 10.6662C261.469 10.9115 261.245 11.1733 261.116 11.4517L260.002 11.054C260.201 10.59 260.466 10.2287 260.797 9.97017C261.132 9.70833 261.497 9.52604 261.891 9.4233C262.289 9.31723 262.68 9.2642 263.065 9.2642C263.31 9.2642 263.592 9.29403 263.91 9.35369C264.231 9.41004 264.541 9.5277 264.839 9.70668C265.141 9.88565 265.391 10.1558 265.59 10.517C265.789 10.8783 265.888 11.3622 265.888 11.9688V17H264.715V15.9659H264.655C264.576 16.1316 264.443 16.3089 264.258 16.4979C264.072 16.6868 263.825 16.8475 263.517 16.9801C263.209 17.1127 262.833 17.179 262.388 17.179ZM262.567 16.125C263.031 16.125 263.422 16.0339 263.741 15.8516C264.062 15.6693 264.304 15.4339 264.467 15.1456C264.632 14.8572 264.715 14.554 264.715 14.2358V13.1619C264.665 13.2216 264.556 13.2763 264.387 13.326C264.221 13.3724 264.029 13.4138 263.81 13.4503C263.595 13.4834 263.384 13.5133 263.179 13.5398C262.977 13.563 262.813 13.5829 262.687 13.5994C262.382 13.6392 262.097 13.7038 261.832 13.7933C261.57 13.8795 261.358 14.0104 261.195 14.1861C261.036 14.3584 260.957 14.5937 260.957 14.892C260.957 15.2997 261.107 15.608 261.409 15.8168C261.714 16.0223 262.1 16.125 262.567 16.125ZM269.203 12.4062V17H268.03V6.81818H269.203V10.5568H269.303C269.482 10.1624 269.75 9.84919 270.108 9.61719C270.469 9.38187 270.95 9.2642 271.55 9.2642C272.07 9.2642 272.526 9.36861 272.917 9.57741C273.308 9.78291 273.611 10.0994 273.827 10.527C274.046 10.9512 274.155 11.4915 274.155 12.1477V17H272.982V12.2273C272.982 11.6207 272.824 11.1518 272.509 10.8203C272.198 10.4856 271.765 10.3182 271.212 10.3182C270.827 10.3182 270.483 10.3994 270.178 10.5618C269.876 10.7242 269.637 10.9612 269.462 11.2727C269.289 11.5843 269.203 11.9621 269.203 12.4062ZM283.401 17.1392C282.818 17.1392 282.292 17.0232 281.825 16.7912C281.358 16.5592 280.983 16.241 280.701 15.8366C280.42 15.4323 280.265 14.9716 280.239 14.4545H281.432C281.478 14.9152 281.687 15.2964 282.059 15.598C282.433 15.8963 282.88 16.0455 283.401 16.0455C283.818 16.0455 284.19 15.9477 284.514 15.7521C284.843 15.5566 285.099 15.2881 285.285 14.9467C285.474 14.602 285.568 14.2126 285.568 13.7784C285.568 13.3343 285.471 12.9382 285.275 12.5902C285.083 12.2389 284.818 11.9621 284.48 11.7599C284.142 11.5578 283.755 11.455 283.321 11.4517C283.01 11.4484 282.69 11.4964 282.362 11.5959C282.034 11.692 281.764 11.8163 281.551 11.9688L280.398 11.8295L281.014 6.81818H286.304V7.91193H282.049L281.691 10.9148H281.75C281.959 10.7491 282.221 10.6115 282.536 10.5021C282.851 10.3928 283.179 10.3381 283.52 10.3381C284.143 10.3381 284.698 10.4872 285.186 10.7855C285.676 11.0805 286.061 11.4848 286.339 11.9986C286.621 12.5123 286.762 13.099 286.762 13.7585C286.762 14.4081 286.616 14.9882 286.324 15.4986C286.036 16.0057 285.638 16.4067 285.131 16.7017C284.624 16.9934 284.047 17.1392 283.401 17.1392Z" fill="black"/>
</svg>
