<svg width="146" height="60" viewBox="0 0 146 60" fill="none" xmlns="http://www.w3.org/2000/svg">
<rect width="146" height="60" fill="#F0F0F0"/>
<path d="M27.9059 37V35.8494L32.2269 31.1193C32.734 30.5653 33.1516 30.0838 33.4798 29.6747C33.8079 29.2614 34.0508 28.8736 34.2085 28.5114C34.3704 28.1449 34.4513 27.7614 34.4513 27.3608C34.4513 26.9006 34.3406 26.5021 34.119 26.1655C33.9016 25.8288 33.6033 25.5689 33.2241 25.3857C32.8448 25.2024 32.4187 25.1108 31.9457 25.1108C31.4428 25.1108 31.0039 25.2152 30.6289 25.424C30.2582 25.6286 29.9705 25.9162 29.766 26.2869C29.5657 26.6577 29.4656 27.0923 29.4656 27.5909H27.957C27.957 26.8239 28.1339 26.1506 28.4876 25.571C28.8413 24.9915 29.3228 24.5398 29.9322 24.2159C30.5458 23.892 31.234 23.7301 31.9968 23.7301C32.7638 23.7301 33.4435 23.892 34.0359 24.2159C34.6282 24.5398 35.0927 24.9766 35.4293 25.5263C35.766 26.076 35.9343 26.6875 35.9343 27.3608C35.9343 27.8423 35.8469 28.3132 35.6722 28.7734C35.5018 29.2294 35.2035 29.7386 34.7773 30.3011C34.3555 30.8594 33.7695 31.5412 33.0195 32.3466L30.0792 35.4915V35.5938H36.1644V37H27.9059Z" fill="#222222"/>
<rect x="11.5" y="11.5" width="41" height="37" stroke="#936DE4" stroke-width="3"/>
<path d="M73 37.179C72.0369 37.179 71.2166 36.9169 70.5391 36.3928C69.8615 35.8643 69.3438 35.0994 68.9858 34.098C68.6278 33.0923 68.4489 31.8778 68.4489 30.4545C68.4489 29.0398 68.6278 27.8317 68.9858 26.8303C69.348 25.8246 69.8679 25.0575 70.5455 24.5291C71.2273 23.9964 72.0455 23.7301 73 23.7301C73.9545 23.7301 74.7706 23.9964 75.4482 24.5291C76.13 25.0575 76.6499 25.8246 77.0078 26.8303C77.37 27.8317 77.5511 29.0398 77.5511 30.4545C77.5511 31.8778 77.3722 33.0923 77.0142 34.098C76.6562 35.0994 76.1385 35.8643 75.4609 36.3928C74.7834 36.9169 73.9631 37.179 73 37.179ZM73 35.7727C73.9545 35.7727 74.696 35.3125 75.2244 34.392C75.7528 33.4716 76.017 32.1591 76.017 30.4545C76.017 29.321 75.8956 28.3558 75.6527 27.5589C75.4141 26.7621 75.0689 26.1548 74.6172 25.7372C74.1697 25.3196 73.6307 25.1108 73 25.1108C72.054 25.1108 71.3146 25.5774 70.782 26.5107C70.2493 27.4396 69.983 28.7543 69.983 30.4545C69.983 31.5881 70.1023 32.5511 70.3409 33.3438C70.5795 34.1364 70.9226 34.7393 71.37 35.1527C71.8217 35.5661 72.3651 35.7727 73 35.7727Z" fill="#222222"/>
<rect x="52.5" y="11.5" width="41" height="37" stroke="#936DE4" stroke-width="3"/>
<path d="M114 37.179C113.037 37.179 112.217 36.9169 111.539 36.3928C110.862 35.8643 110.344 35.0994 109.986 34.098C109.628 33.0923 109.449 31.8778 109.449 30.4545C109.449 29.0398 109.628 27.8317 109.986 26.8303C110.348 25.8246 110.868 25.0575 111.545 24.5291C112.227 23.9964 113.045 23.7301 114 23.7301C114.955 23.7301 115.771 23.9964 116.448 24.5291C117.13 25.0575 117.65 25.8246 118.008 26.8303C118.37 27.8317 118.551 29.0398 118.551 30.4545C118.551 31.8778 118.372 33.0923 118.014 34.098C117.656 35.0994 117.138 35.8643 116.461 36.3928C115.783 36.9169 114.963 37.179 114 37.179ZM114 35.7727C114.955 35.7727 115.696 35.3125 116.224 34.392C116.753 33.4716 117.017 32.1591 117.017 30.4545C117.017 29.321 116.896 28.3558 116.653 27.5589C116.414 26.7621 116.069 26.1548 115.617 25.7372C115.17 25.3196 114.631 25.1108 114 25.1108C113.054 25.1108 112.315 25.5774 111.782 26.5107C111.249 27.4396 110.983 28.7543 110.983 30.4545C110.983 31.5881 111.102 32.5511 111.341 33.3438C111.58 34.1364 111.923 34.7393 112.37 35.1527C112.822 35.5661 113.365 35.7727 114 35.7727Z" fill="#222222"/>
<rect x="93.5" y="11.5" width="41" height="37" stroke="#936DE4" stroke-width="3"/>
</svg>
