<svg width="187" height="60" viewBox="0 0 187 60" fill="none" xmlns="http://www.w3.org/2000/svg">
<rect width="187" height="60" fill="#F0F0F0"/>
<path d="M27.9059 37V35.8494L32.2269 31.1193C32.734 30.5653 33.1516 30.0838 33.4798 29.6747C33.8079 29.2614 34.0508 28.8736 34.2085 28.5114C34.3704 28.1449 34.4513 27.7614 34.4513 27.3608C34.4513 26.9006 34.3406 26.5021 34.119 26.1655C33.9016 25.8288 33.6033 25.5689 33.2241 25.3857C32.8448 25.2024 32.4187 25.1108 31.9457 25.1108C31.4428 25.1108 31.0039 25.2152 30.6289 25.424C30.2582 25.6286 29.9705 25.9162 29.766 26.2869C29.5657 26.6577 29.4656 27.0923 29.4656 27.5909H27.957C27.957 26.8239 28.1339 26.1506 28.4876 25.571C28.8413 24.9915 29.3228 24.5398 29.9322 24.2159C30.5458 23.892 31.234 23.7301 31.9968 23.7301C32.7638 23.7301 33.4435 23.892 34.0359 24.2159C34.6282 24.5398 35.0927 24.9766 35.4293 25.5263C35.766 26.076 35.9343 26.6875 35.9343 27.3608C35.9343 27.8423 35.8469 28.3132 35.6722 28.7734C35.5018 29.2294 35.2035 29.7386 34.7773 30.3011C34.3555 30.8594 33.7695 31.5412 33.0195 32.3466L30.0792 35.4915V35.5938H36.1644V37H27.9059Z" fill="#222222"/>
<rect x="11.5" y="11.5" width="41" height="37" stroke="#936DE4" stroke-width="3"/>
<path d="M68.9059 37V35.8494L73.2269 31.1193C73.734 30.5653 74.1516 30.0838 74.4798 29.6747C74.8079 29.2614 75.0508 28.8736 75.2085 28.5114C75.3704 28.1449 75.4513 27.7614 75.4513 27.3608C75.4513 26.9006 75.3406 26.5021 75.119 26.1655C74.9016 25.8288 74.6033 25.5689 74.2241 25.3857C73.8448 25.2024 73.4187 25.1108 72.9457 25.1108C72.4428 25.1108 72.0039 25.2152 71.6289 25.424C71.2582 25.6286 70.9705 25.9162 70.766 26.2869C70.5657 26.6577 70.4656 27.0923 70.4656 27.5909H68.957C68.957 26.8239 69.1339 26.1506 69.4876 25.571C69.8413 24.9915 70.3228 24.5398 70.9322 24.2159C71.5458 23.892 72.234 23.7301 72.9968 23.7301C73.7638 23.7301 74.4435 23.892 75.0359 24.2159C75.6282 24.5398 76.0927 24.9766 76.4293 25.5263C76.766 26.076 76.9343 26.6875 76.9343 27.3608C76.9343 27.8423 76.8469 28.3132 76.6722 28.7734C76.5018 29.2294 76.2035 29.7386 75.7773 30.3011C75.3555 30.8594 74.7695 31.5412 74.0195 32.3466L71.0792 35.4915V35.5938H77.1644V37H68.9059Z" fill="#222222"/>
<rect x="52.5" y="11.5" width="41" height="37" stroke="#936DE4" stroke-width="3"/>
<path d="M109.274 34.3153V33.0114L115.027 23.9091H115.973V25.929H115.334L110.987 32.8068V32.9091H118.734V34.3153H109.274ZM115.436 37V33.919V33.3118V23.9091H116.944V37H115.436Z" fill="#222222"/>
<rect x="93.5" y="11.5" width="41" height="37" stroke="#936DE4" stroke-width="3"/>
<path d="M156.774 23.9091V37H155.189V25.571H155.112L151.916 27.6932V26.0824L155.189 23.9091H156.774Z" fill="#222222"/>
<rect x="134.5" y="11.5" width="41" height="37" stroke="#936DE4" stroke-width="3"/>
</svg>
