<svg width="222" height="226" viewBox="0 0 222 226" fill="none" xmlns="http://www.w3.org/2000/svg">
<rect width="222" height="226" fill="#F0F0F0"/>
<path d="M26 43.179C25.0369 43.179 24.2166 42.9169 23.5391 42.3928C22.8615 41.8643 22.3438 41.0994 21.9858 40.098C21.6278 39.0923 21.4489 37.8778 21.4489 36.4545C21.4489 35.0398 21.6278 33.8317 21.9858 32.8303C22.348 31.8246 22.8679 31.0575 23.5455 30.5291C24.2273 29.9964 25.0455 29.7301 26 29.7301C26.9545 29.7301 27.7706 29.9964 28.4482 30.5291C29.13 31.0575 29.6499 31.8246 30.0078 32.8303C30.37 33.8317 30.5511 35.0398 30.5511 36.4545C30.5511 37.8778 30.3722 39.0923 30.0142 40.098C29.6562 41.0994 29.1385 41.8643 28.4609 42.3928C27.7834 42.9169 26.9631 43.179 26 43.179ZM26 41.7727C26.9545 41.7727 27.696 41.3125 28.2244 40.392C28.7528 39.4716 29.017 38.1591 29.017 36.4545C29.017 35.321 28.8956 34.3558 28.6527 33.5589C28.4141 32.7621 28.0689 32.1548 27.6172 31.7372C27.1697 31.3196 26.6307 31.1108 26 31.1108C25.054 31.1108 24.3146 31.5774 23.782 32.5107C23.2493 33.4396 22.983 34.7543 22.983 36.4545C22.983 37.5881 23.1023 38.5511 23.3409 39.3438C23.5795 40.1364 23.9226 40.7393 24.37 41.1527C24.8217 41.5661 25.3651 41.7727 26 41.7727Z" fill="#222222"/>
<rect x="5.5" y="17.5" width="41" height="37" stroke="#936DE4" stroke-width="3"/>
<path d="M68.7738 29.9091V43H67.1886V31.571H67.1119L63.9158 33.6932V32.0824L67.1886 29.9091H68.7738Z" fill="#222222"/>
<rect x="46.5" y="17.5" width="41" height="37" stroke="#936DE4" stroke-width="3"/>
<path d="M65.9059 113V111.849L70.2269 107.119C70.734 106.565 71.1516 106.084 71.4798 105.675C71.8079 105.261 72.0508 104.874 72.2085 104.511C72.3704 104.145 72.4513 103.761 72.4513 103.361C72.4513 102.901 72.3406 102.502 72.119 102.165C71.9016 101.829 71.6033 101.569 71.2241 101.386C70.8448 101.202 70.4187 101.111 69.9457 101.111C69.4428 101.111 69.0039 101.215 68.6289 101.424C68.2582 101.629 67.9705 101.916 67.766 102.287C67.5657 102.658 67.4656 103.092 67.4656 103.591H65.957C65.957 102.824 66.1339 102.151 66.4876 101.571C66.8413 100.991 67.3228 100.54 67.9322 100.216C68.5458 99.892 69.234 99.7301 69.9968 99.7301C70.7638 99.7301 71.4435 99.892 72.0359 100.216C72.6282 100.54 73.0927 100.977 73.4293 101.526C73.766 102.076 73.9343 102.688 73.9343 103.361C73.9343 103.842 73.8469 104.313 73.6722 104.773C73.5018 105.229 73.2035 105.739 72.7773 106.301C72.3555 106.859 71.7695 107.541 71.0195 108.347L68.0792 111.491V111.594H74.1644V113H65.9059Z" fill="#222222"/>
<rect x="49.5" y="87.5" width="41" height="37" stroke="#2D4EC6" stroke-width="3"/>
<path d="M112.774 99.9091V113H111.189V101.571H111.112L107.916 103.693V102.082L111.189 99.9091H112.774Z" fill="#222222"/>
<rect x="90.5" y="87.5" width="41" height="37" stroke="#2D4EC6" stroke-width="3"/>
<path d="M152.048 113.179C151.204 113.179 150.452 113.034 149.792 112.744C149.135 112.455 148.613 112.052 148.225 111.536C147.842 111.016 147.633 110.413 147.599 109.727H149.21C149.244 110.149 149.389 110.513 149.645 110.82C149.9 111.123 150.235 111.357 150.648 111.523C151.061 111.69 151.52 111.773 152.022 111.773C152.585 111.773 153.083 111.675 153.518 111.479C153.953 111.283 154.294 111.01 154.541 110.661C154.788 110.311 154.912 109.906 154.912 109.446C154.912 108.964 154.792 108.54 154.554 108.174C154.315 107.803 153.966 107.513 153.505 107.305C153.045 107.096 152.483 106.991 151.818 106.991H150.77V105.585H151.818C152.338 105.585 152.794 105.491 153.186 105.304C153.582 105.116 153.891 104.852 154.113 104.511C154.338 104.17 154.451 103.77 154.451 103.31C154.451 102.866 154.353 102.481 154.157 102.153C153.961 101.825 153.684 101.569 153.326 101.386C152.973 101.202 152.555 101.111 152.074 101.111C151.622 101.111 151.196 101.194 150.795 101.36C150.399 101.522 150.075 101.759 149.824 102.07C149.572 102.376 149.436 102.747 149.414 103.182H147.88C147.906 102.496 148.113 101.895 148.5 101.379C148.888 100.859 149.395 100.455 150.022 100.165C150.652 99.875 151.345 99.7301 152.099 99.7301C152.909 99.7301 153.603 99.8942 154.183 100.222C154.762 100.546 155.208 100.974 155.519 101.507C155.83 102.04 155.985 102.615 155.985 103.233C155.985 103.97 155.792 104.599 155.404 105.119C155.02 105.638 154.498 105.999 153.838 106.199V106.301C154.664 106.437 155.31 106.789 155.775 107.356C156.239 107.918 156.471 108.615 156.471 109.446C156.471 110.158 156.277 110.797 155.89 111.364C155.506 111.926 154.982 112.369 154.317 112.693C153.652 113.017 152.896 113.179 152.048 113.179Z" fill="#222222"/>
<rect x="131.5" y="87.5" width="41" height="37" stroke="#2D4EC6" stroke-width="3"/>
<path d="M26.0479 184.179C25.2042 184.179 24.4521 184.034 23.7915 183.744C23.1353 183.455 22.6133 183.052 22.2255 182.536C21.842 182.016 21.6332 181.413 21.5991 180.727H23.2099C23.244 181.149 23.3888 181.513 23.6445 181.82C23.9002 182.123 24.2347 182.357 24.6481 182.523C25.0614 182.69 25.5195 182.773 26.0224 182.773C26.5849 182.773 27.0835 182.675 27.5181 182.479C27.9528 182.283 28.2937 182.01 28.5408 181.661C28.788 181.311 28.9116 180.906 28.9116 180.446C28.9116 179.964 28.7923 179.54 28.5536 179.174C28.315 178.803 27.9656 178.513 27.5053 178.305C27.0451 178.096 26.4826 177.991 25.8178 177.991H24.7695V176.585H25.8178C26.3377 176.585 26.7937 176.491 27.1857 176.304C27.582 176.116 27.891 175.852 28.1126 175.511C28.3384 175.17 28.4513 174.77 28.4513 174.31C28.4513 173.866 28.3533 173.481 28.1573 173.153C27.9613 172.825 27.6843 172.569 27.3263 172.386C26.9727 172.202 26.555 172.111 26.0735 172.111C25.6218 172.111 25.1957 172.194 24.7951 172.36C24.3988 172.522 24.0749 172.759 23.8235 173.07C23.5721 173.376 23.4357 173.747 23.4144 174.182H21.8803C21.9059 173.496 22.1126 172.895 22.5004 172.379C22.8881 171.859 23.3952 171.455 24.0217 171.165C24.6523 170.875 25.3448 170.73 26.0991 170.73C26.9087 170.73 27.6033 170.894 28.1829 171.222C28.7624 171.546 29.2077 171.974 29.5188 172.507C29.8299 173.04 29.9854 173.615 29.9854 174.233C29.9854 174.97 29.7915 175.599 29.4038 176.119C29.0202 176.638 28.4982 176.999 27.8377 177.199V177.301C28.6644 177.437 29.31 177.789 29.7745 178.356C30.239 178.918 30.4712 179.615 30.4712 180.446C30.4712 181.158 30.2773 181.797 29.8896 182.364C29.506 182.926 28.9819 183.369 28.3171 183.693C27.6523 184.017 26.896 184.179 26.0479 184.179Z" fill="#222222"/>
<rect x="5.5" y="158.5" width="41" height="37" stroke="#2D4EC6" stroke-width="3"/>
<path d="M66.9704 184.179C66.2204 184.179 65.545 184.03 64.9442 183.732C64.3433 183.433 63.8618 183.024 63.4996 182.504C63.1373 181.984 62.9392 181.392 62.9051 180.727H64.4392C64.4988 181.32 64.7673 181.81 65.2446 182.197C65.7261 182.581 66.3014 182.773 66.9704 182.773C67.5074 182.773 67.9846 182.647 68.4023 182.396C68.8241 182.144 69.1544 181.799 69.393 181.36C69.6359 180.917 69.7574 180.416 69.7574 179.858C69.7574 179.287 69.6317 178.778 69.3802 178.33C69.1331 177.879 68.7922 177.523 68.3575 177.263C67.9229 177.003 67.4264 176.871 66.8682 176.866C66.4676 176.862 66.0564 176.924 65.6345 177.052C65.2126 177.175 64.8653 177.335 64.5926 177.531L63.1096 177.352L63.9023 170.909H70.7034V172.315H65.2318L64.7716 176.176H64.8483C65.1167 175.963 65.4534 175.786 65.8582 175.646C66.2631 175.505 66.6849 175.435 67.1238 175.435C67.925 175.435 68.6388 175.626 69.2652 176.01C69.8959 176.389 70.3902 176.909 70.7481 177.57C71.1104 178.23 71.2915 178.984 71.2915 179.832C71.2915 180.668 71.104 181.413 70.729 182.07C70.3582 182.722 69.8469 183.237 69.1949 183.616C68.5429 183.991 67.8014 184.179 66.9704 184.179Z" fill="#222222"/>
<rect x="46.5" y="158.5" width="41" height="37" stroke="#2D4EC6" stroke-width="3"/>
<path d="M107.97 184.179C107.22 184.179 106.545 184.03 105.944 183.732C105.343 183.433 104.862 183.024 104.5 182.504C104.137 181.984 103.939 181.392 103.905 180.727H105.439C105.499 181.32 105.767 181.81 106.245 182.197C106.726 182.581 107.301 182.773 107.97 182.773C108.507 182.773 108.985 182.647 109.402 182.396C109.824 182.144 110.154 181.799 110.393 181.36C110.636 180.917 110.757 180.416 110.757 179.858C110.757 179.287 110.632 178.778 110.38 178.33C110.133 177.879 109.792 177.523 109.358 177.263C108.923 177.003 108.426 176.871 107.868 176.866C107.468 176.862 107.056 176.924 106.634 177.052C106.213 177.175 105.865 177.335 105.593 177.531L104.11 177.352L104.902 170.909H111.703V172.315H106.232L105.772 176.176H105.848C106.117 175.963 106.453 175.786 106.858 175.646C107.263 175.505 107.685 175.435 108.124 175.435C108.925 175.435 109.639 175.626 110.265 176.01C110.896 176.389 111.39 176.909 111.748 177.57C112.11 178.23 112.291 178.984 112.291 179.832C112.291 180.668 112.104 181.413 111.729 182.07C111.358 182.722 110.847 183.237 110.195 183.616C109.543 183.991 108.801 184.179 107.97 184.179Z" fill="#222222"/>
<rect x="87.5" y="158.5" width="41" height="37" stroke="#2D4EC6" stroke-width="3"/>
<path d="M26.0001 49L21.6699 56.5L30.3302 56.5L26.0001 49ZM26.75 153L26.7501 55.75L25.2501 55.75L25.25 153L26.75 153Z" fill="#FF4949"/>
<path d="M67.0001 49L62.6699 56.5L71.3302 56.5L67.0001 49ZM67.75 81L67.75 55.75L66.25 55.75L66.25 81L67.75 81Z" fill="#FF4949"/>
<path d="M77 36L84.5 40.3301V31.6699L77 36ZM111 35.25H83.75V36.75H111V35.25Z" fill="#E4D33E"/>
<path d="M118.074 42V34.3636H119.247V42H118.074ZM118.67 33.0909C118.442 33.0909 118.245 33.013 118.079 32.8572C117.916 32.7015 117.835 32.5142 117.835 32.2955C117.835 32.0767 117.916 31.8894 118.079 31.7337C118.245 31.5779 118.442 31.5 118.67 31.5C118.899 31.5 119.095 31.5779 119.257 31.7337C119.423 31.8894 119.506 32.0767 119.506 32.2955C119.506 32.5142 119.423 32.7015 119.257 32.8572C119.095 33.013 118.899 33.0909 118.67 33.0909ZM122.569 37.4062V42H121.396V34.3636H122.53V35.5568H122.629C122.808 35.169 123.08 34.8575 123.444 34.6222C123.809 34.3835 124.28 34.2642 124.856 34.2642C125.373 34.2642 125.826 34.3703 126.214 34.5824C126.601 34.7912 126.903 35.1094 127.118 35.5369C127.334 35.9612 127.442 36.4981 127.442 37.1477V42H126.268V37.2273C126.268 36.6274 126.113 36.16 125.801 35.8253C125.489 35.4872 125.062 35.3182 124.518 35.3182C124.144 35.3182 123.809 35.3994 123.514 35.5618C123.222 35.7242 122.992 35.9612 122.823 36.2727C122.654 36.5843 122.569 36.9621 122.569 37.4062ZM132.469 42.1591C131.833 42.1591 131.271 41.9983 130.784 41.6768C130.297 41.352 129.915 40.8946 129.64 40.3047C129.365 39.7114 129.228 39.0104 129.228 38.2017C129.228 37.3996 129.365 36.7036 129.64 36.1136C129.915 35.5237 130.298 35.0679 130.789 34.7464C131.279 34.425 131.846 34.2642 132.489 34.2642C132.986 34.2642 133.379 34.3471 133.667 34.5128C133.959 34.6752 134.181 34.8608 134.333 35.0696C134.489 35.2751 134.61 35.4441 134.696 35.5767H134.796V31.8182H135.969V42H134.836V40.8267H134.696C134.61 40.9659 134.488 41.1416 134.328 41.3537C134.169 41.5625 133.942 41.7498 133.647 41.9155C133.352 42.0779 132.96 42.1591 132.469 42.1591ZM132.628 41.1051C133.099 41.1051 133.497 40.9825 133.821 40.7372C134.146 40.4886 134.393 40.1456 134.562 39.7081C134.731 39.2673 134.816 38.7585 134.816 38.1818C134.816 37.6117 134.733 37.1129 134.567 36.6854C134.401 36.2545 134.156 35.9197 133.831 35.6811C133.507 35.4392 133.105 35.3182 132.628 35.3182C132.131 35.3182 131.717 35.4458 131.385 35.701C131.057 35.9529 130.81 36.2959 130.645 36.7301C130.482 37.161 130.401 37.6449 130.401 38.1818C130.401 38.7254 130.484 39.2192 130.65 39.6634C130.819 40.1042 131.067 40.4555 131.395 40.7173C131.727 40.9759 132.138 41.1051 132.628 41.1051ZM141.483 42.1591C140.747 42.1591 140.112 41.9967 139.578 41.6719C139.048 41.3438 138.639 40.8864 138.35 40.2997C138.065 39.7098 137.923 39.0237 137.923 38.2415C137.923 37.4593 138.065 36.7699 138.35 36.1733C138.639 35.5734 139.04 35.1061 139.554 34.7713C140.071 34.4332 140.674 34.2642 141.363 34.2642C141.761 34.2642 142.154 34.3305 142.542 34.4631C142.929 34.5956 143.282 34.8111 143.6 35.1094C143.919 35.4044 144.172 35.7955 144.361 36.2827C144.55 36.7699 144.645 37.3698 144.645 38.0824V38.5795H138.758V37.5653H143.451C143.451 37.1345 143.365 36.75 143.193 36.4119C143.024 36.0739 142.782 35.8071 142.467 35.6115C142.155 35.416 141.788 35.3182 141.363 35.3182C140.896 35.3182 140.492 35.4342 140.15 35.6662C139.812 35.8949 139.552 36.1932 139.37 36.5611C139.187 36.929 139.096 37.3234 139.096 37.7443V38.4205C139.096 38.9972 139.196 39.486 139.395 39.8871C139.597 40.2848 139.877 40.5881 140.235 40.7969C140.593 41.0024 141.009 41.1051 141.483 41.1051C141.791 41.1051 142.069 41.062 142.318 40.9759C142.57 40.8864 142.787 40.7538 142.969 40.5781C143.151 40.3991 143.292 40.1771 143.392 39.9119L144.525 40.2301C144.406 40.6146 144.205 40.9527 143.924 41.2443C143.642 41.5327 143.294 41.758 142.88 41.9205C142.465 42.0795 142 42.1591 141.483 42.1591ZM147.099 34.3636L148.929 37.4858L150.758 34.3636H152.111L149.645 38.1818L152.111 42H150.758L148.929 39.0369L147.099 42H145.747L148.173 38.1818L145.747 34.3636H147.099Z" fill="black"/>
<path d="M162 140L169.5 144.33V135.67L162 140ZM180 139.25H168.75V140.75H180V139.25Z" fill="#E4D33E"/>
<path d="M182.074 145V137.364H183.247V145H182.074ZM182.67 136.091C182.442 136.091 182.245 136.013 182.079 135.857C181.916 135.701 181.835 135.514 181.835 135.295C181.835 135.077 181.916 134.889 182.079 134.734C182.245 134.578 182.442 134.5 182.67 134.5C182.899 134.5 183.095 134.578 183.257 134.734C183.423 134.889 183.506 135.077 183.506 135.295C183.506 135.514 183.423 135.701 183.257 135.857C183.095 136.013 182.899 136.091 182.67 136.091ZM186.569 140.406V145H185.396V137.364H186.53V138.557H186.629C186.808 138.169 187.08 137.857 187.444 137.622C187.809 137.384 188.28 137.264 188.856 137.264C189.373 137.264 189.826 137.37 190.214 137.582C190.601 137.791 190.903 138.109 191.118 138.537C191.334 138.961 191.442 139.498 191.442 140.148V145H190.268V140.227C190.268 139.627 190.113 139.16 189.801 138.825C189.489 138.487 189.062 138.318 188.518 138.318C188.144 138.318 187.809 138.399 187.514 138.562C187.222 138.724 186.992 138.961 186.823 139.273C186.654 139.584 186.569 139.962 186.569 140.406ZM196.469 145.159C195.833 145.159 195.271 144.998 194.784 144.677C194.297 144.352 193.915 143.895 193.64 143.305C193.365 142.711 193.228 142.01 193.228 141.202C193.228 140.4 193.365 139.704 193.64 139.114C193.915 138.524 194.298 138.068 194.789 137.746C195.279 137.425 195.846 137.264 196.489 137.264C196.986 137.264 197.379 137.347 197.667 137.513C197.959 137.675 198.181 137.861 198.333 138.07C198.489 138.275 198.61 138.444 198.696 138.577H198.796V134.818H199.969V145H198.836V143.827H198.696C198.61 143.966 198.488 144.142 198.328 144.354C198.169 144.562 197.942 144.75 197.647 144.915C197.352 145.078 196.96 145.159 196.469 145.159ZM196.628 144.105C197.099 144.105 197.497 143.982 197.821 143.737C198.146 143.489 198.393 143.146 198.562 142.708C198.731 142.267 198.816 141.759 198.816 141.182C198.816 140.612 198.733 140.113 198.567 139.685C198.401 139.254 198.156 138.92 197.831 138.681C197.507 138.439 197.105 138.318 196.628 138.318C196.131 138.318 195.717 138.446 195.385 138.701C195.057 138.953 194.81 139.296 194.645 139.73C194.482 140.161 194.401 140.645 194.401 141.182C194.401 141.725 194.484 142.219 194.65 142.663C194.819 143.104 195.067 143.455 195.395 143.717C195.727 143.976 196.138 144.105 196.628 144.105ZM205.483 145.159C204.747 145.159 204.112 144.997 203.578 144.672C203.048 144.344 202.639 143.886 202.35 143.3C202.065 142.71 201.923 142.024 201.923 141.241C201.923 140.459 202.065 139.77 202.35 139.173C202.639 138.573 203.04 138.106 203.554 137.771C204.071 137.433 204.674 137.264 205.363 137.264C205.761 137.264 206.154 137.33 206.542 137.463C206.929 137.596 207.282 137.811 207.6 138.109C207.919 138.404 208.172 138.795 208.361 139.283C208.55 139.77 208.645 140.37 208.645 141.082V141.58H202.758V140.565H207.451C207.451 140.134 207.365 139.75 207.193 139.412C207.024 139.074 206.782 138.807 206.467 138.612C206.155 138.416 205.788 138.318 205.363 138.318C204.896 138.318 204.492 138.434 204.15 138.666C203.812 138.895 203.552 139.193 203.37 139.561C203.187 139.929 203.096 140.323 203.096 140.744V141.42C203.096 141.997 203.196 142.486 203.395 142.887C203.597 143.285 203.877 143.588 204.235 143.797C204.593 144.002 205.009 144.105 205.483 144.105C205.791 144.105 206.069 144.062 206.318 143.976C206.57 143.886 206.787 143.754 206.969 143.578C207.151 143.399 207.292 143.177 207.392 142.912L208.525 143.23C208.406 143.615 208.205 143.953 207.924 144.244C207.642 144.533 207.294 144.758 206.88 144.92C206.465 145.08 206 145.159 205.483 145.159ZM211.099 137.364L212.929 140.486L214.758 137.364H216.111L213.645 141.182L216.111 145H214.758L212.929 142.037L211.099 145H209.747L212.173 141.182L209.747 137.364H211.099Z" fill="black"/>
<path d="M120 207L127.5 211.33V202.67L120 207ZM144 206.25H126.75V207.75H144V206.25Z" fill="#E4D33E"/>
<path d="M147.074 213V205.364H148.247V213H147.074ZM147.67 204.091C147.442 204.091 147.245 204.013 147.079 203.857C146.916 203.701 146.835 203.514 146.835 203.295C146.835 203.077 146.916 202.889 147.079 202.734C147.245 202.578 147.442 202.5 147.67 202.5C147.899 202.5 148.095 202.578 148.257 202.734C148.423 202.889 148.506 203.077 148.506 203.295C148.506 203.514 148.423 203.701 148.257 203.857C148.095 204.013 147.899 204.091 147.67 204.091ZM151.569 208.406V213H150.396V205.364H151.53V206.557H151.629C151.808 206.169 152.08 205.857 152.444 205.622C152.809 205.384 153.28 205.264 153.856 205.264C154.373 205.264 154.826 205.37 155.214 205.582C155.601 205.791 155.903 206.109 156.118 206.537C156.334 206.961 156.442 207.498 156.442 208.148V213H155.268V208.227C155.268 207.627 155.113 207.16 154.801 206.825C154.489 206.487 154.062 206.318 153.518 206.318C153.144 206.318 152.809 206.399 152.514 206.562C152.222 206.724 151.992 206.961 151.823 207.273C151.654 207.584 151.569 207.962 151.569 208.406ZM161.469 213.159C160.833 213.159 160.271 212.998 159.784 212.677C159.297 212.352 158.915 211.895 158.64 211.305C158.365 210.711 158.228 210.01 158.228 209.202C158.228 208.4 158.365 207.704 158.64 207.114C158.915 206.524 159.298 206.068 159.789 205.746C160.279 205.425 160.846 205.264 161.489 205.264C161.986 205.264 162.379 205.347 162.667 205.513C162.959 205.675 163.181 205.861 163.333 206.07C163.489 206.275 163.61 206.444 163.696 206.577H163.796V202.818H164.969V213H163.836V211.827H163.696C163.61 211.966 163.488 212.142 163.328 212.354C163.169 212.562 162.942 212.75 162.647 212.915C162.352 213.078 161.96 213.159 161.469 213.159ZM161.628 212.105C162.099 212.105 162.497 211.982 162.821 211.737C163.146 211.489 163.393 211.146 163.562 210.708C163.731 210.267 163.816 209.759 163.816 209.182C163.816 208.612 163.733 208.113 163.567 207.685C163.401 207.254 163.156 206.92 162.831 206.681C162.507 206.439 162.105 206.318 161.628 206.318C161.131 206.318 160.717 206.446 160.385 206.701C160.057 206.953 159.81 207.296 159.645 207.73C159.482 208.161 159.401 208.645 159.401 209.182C159.401 209.725 159.484 210.219 159.65 210.663C159.819 211.104 160.067 211.455 160.395 211.717C160.727 211.976 161.138 212.105 161.628 212.105ZM170.483 213.159C169.747 213.159 169.112 212.997 168.578 212.672C168.048 212.344 167.639 211.886 167.35 211.3C167.065 210.71 166.923 210.024 166.923 209.241C166.923 208.459 167.065 207.77 167.35 207.173C167.639 206.573 168.04 206.106 168.554 205.771C169.071 205.433 169.674 205.264 170.363 205.264C170.761 205.264 171.154 205.33 171.542 205.463C171.929 205.596 172.282 205.811 172.6 206.109C172.919 206.404 173.172 206.795 173.361 207.283C173.55 207.77 173.645 208.37 173.645 209.082V209.58H167.758V208.565H172.451C172.451 208.134 172.365 207.75 172.193 207.412C172.024 207.074 171.782 206.807 171.467 206.612C171.155 206.416 170.788 206.318 170.363 206.318C169.896 206.318 169.492 206.434 169.15 206.666C168.812 206.895 168.552 207.193 168.37 207.561C168.187 207.929 168.096 208.323 168.096 208.744V209.42C168.096 209.997 168.196 210.486 168.395 210.887C168.597 211.285 168.877 211.588 169.235 211.797C169.593 212.002 170.009 212.105 170.483 212.105C170.791 212.105 171.069 212.062 171.318 211.976C171.57 211.886 171.787 211.754 171.969 211.578C172.151 211.399 172.292 211.177 172.392 210.912L173.525 211.23C173.406 211.615 173.205 211.953 172.924 212.244C172.642 212.533 172.294 212.758 171.88 212.92C171.465 213.08 171 213.159 170.483 213.159ZM176.099 205.364L177.929 208.486L179.758 205.364H181.111L178.645 209.182L181.111 213H179.758L177.929 210.037L176.099 213H174.747L177.173 209.182L174.747 205.364H176.099Z" fill="black"/>
<path d="M70.5 145.179C69.5369 145.179 68.7166 144.917 68.0391 144.393C67.3615 143.864 66.8438 143.099 66.4858 142.098C66.1278 141.092 65.9489 139.878 65.9489 138.455C65.9489 137.04 66.1278 135.832 66.4858 134.83C66.848 133.825 67.3679 133.058 68.0455 132.529C68.7273 131.996 69.5455 131.73 70.5 131.73C71.4545 131.73 72.2706 131.996 72.9482 132.529C73.63 133.058 74.1499 133.825 74.5078 134.83C74.87 135.832 75.0511 137.04 75.0511 138.455C75.0511 139.878 74.8722 141.092 74.5142 142.098C74.1562 143.099 73.6385 143.864 72.9609 144.393C72.2834 144.917 71.4631 145.179 70.5 145.179ZM70.5 143.773C71.4545 143.773 72.196 143.312 72.7244 142.392C73.2528 141.472 73.517 140.159 73.517 138.455C73.517 137.321 73.3956 136.356 73.1527 135.559C72.9141 134.762 72.5689 134.155 72.1172 133.737C71.6697 133.32 71.1307 133.111 70.5 133.111C69.554 133.111 68.8146 133.577 68.282 134.511C67.7493 135.44 67.483 136.754 67.483 138.455C67.483 139.588 67.6023 140.551 67.8409 141.344C68.0795 142.136 68.4226 142.739 68.87 143.153C69.3217 143.566 69.8651 143.773 70.5 143.773Z" fill="black"/>
<path d="M147.406 146V144.849L151.727 140.119C152.234 139.565 152.652 139.084 152.98 138.675C153.308 138.261 153.551 137.874 153.708 137.511C153.87 137.145 153.951 136.761 153.951 136.361C153.951 135.901 153.841 135.502 153.619 135.165C153.402 134.829 153.103 134.569 152.724 134.386C152.345 134.202 151.919 134.111 151.446 134.111C150.943 134.111 150.504 134.215 150.129 134.424C149.758 134.629 149.471 134.916 149.266 135.287C149.066 135.658 148.966 136.092 148.966 136.591H147.457C147.457 135.824 147.634 135.151 147.988 134.571C148.341 133.991 148.823 133.54 149.432 133.216C150.046 132.892 150.734 132.73 151.497 132.73C152.264 132.73 152.944 132.892 153.536 133.216C154.128 133.54 154.593 133.977 154.929 134.526C155.266 135.076 155.434 135.688 155.434 136.361C155.434 136.842 155.347 137.313 155.172 137.773C155.002 138.229 154.703 138.739 154.277 139.301C153.855 139.859 153.27 140.541 152.52 141.347L149.579 144.491V144.594H155.664V146H147.406Z" fill="black"/>
<path d="M113.274 131.909V145H111.689V133.571H111.612L108.416 135.693V134.082L111.689 131.909H113.274Z" fill="black"/>
<path d="M23.5 214.179C22.5369 214.179 21.7166 213.917 21.0391 213.393C20.3615 212.864 19.8438 212.099 19.4858 211.098C19.1278 210.092 18.9489 208.878 18.9489 207.455C18.9489 206.04 19.1278 204.832 19.4858 203.83C19.848 202.825 20.3679 202.058 21.0455 201.529C21.7273 200.996 22.5455 200.73 23.5 200.73C24.4545 200.73 25.2706 200.996 25.9482 201.529C26.63 202.058 27.1499 202.825 27.5078 203.83C27.87 204.832 28.0511 206.04 28.0511 207.455C28.0511 208.878 27.8722 210.092 27.5142 211.098C27.1562 212.099 26.6385 212.864 25.9609 213.393C25.2834 213.917 24.4631 214.179 23.5 214.179ZM23.5 212.773C24.4545 212.773 25.196 212.312 25.7244 211.392C26.2528 210.472 26.517 209.159 26.517 207.455C26.517 206.321 26.3956 205.356 26.1527 204.559C25.9141 203.762 25.5689 203.155 25.1172 202.737C24.6697 202.32 24.1307 202.111 23.5 202.111C22.554 202.111 21.8146 202.577 21.282 203.511C20.7493 204.44 20.483 205.754 20.483 207.455C20.483 208.588 20.6023 209.551 20.8409 210.344C21.0795 211.136 21.4226 211.739 21.87 212.153C22.3217 212.566 22.8651 212.773 23.5 212.773Z" fill="black"/>
<path d="M100.406 215V213.849L104.727 209.119C105.234 208.565 105.652 208.084 105.98 207.675C106.308 207.261 106.551 206.874 106.708 206.511C106.87 206.145 106.951 205.761 106.951 205.361C106.951 204.901 106.841 204.502 106.619 204.165C106.402 203.829 106.103 203.569 105.724 203.386C105.345 203.202 104.919 203.111 104.446 203.111C103.943 203.111 103.504 203.215 103.129 203.424C102.758 203.629 102.471 203.916 102.266 204.287C102.066 204.658 101.966 205.092 101.966 205.591H100.457C100.457 204.824 100.634 204.151 100.988 203.571C101.341 202.991 101.823 202.54 102.432 202.216C103.046 201.892 103.734 201.73 104.497 201.73C105.264 201.73 105.944 201.892 106.536 202.216C107.128 202.54 107.593 202.977 107.929 203.526C108.266 204.076 108.434 204.688 108.434 205.361C108.434 205.842 108.347 206.313 108.172 206.773C108.002 207.229 107.703 207.739 107.277 208.301C106.855 208.859 106.27 209.541 105.52 210.347L102.579 213.491V213.594H108.664V215H100.406Z" fill="black"/>
<path d="M66.2738 200.909V214H64.6886V202.571H64.6119L61.4158 204.693V203.082L64.6886 200.909H66.2738Z" fill="black"/>
</svg>
